%TF.GenerationSoftware,KiCad,Pcbnew,9.0.7*%
%TF.CreationDate,2026-02-05T23:50:44+01:00*%
%TF.ProjectId,led_bage_sample,6c65645f-6261-4676-955f-73616d706c65,rev?*%
%TF.SameCoordinates,Original*%
%TF.FileFunction,Soldermask,Top*%
%TF.FilePolarity,Negative*%
%FSLAX46Y46*%
G04 Gerber Fmt 4.6, Leading zero omitted, Abs format (unit mm)*
G04 Created by KiCad (PCBNEW 9.0.7) date 2026-02-05 23:50:44*
%MOMM*%
%LPD*%
G01*
G04 APERTURE LIST*
G04 Aperture macros list*
%AMRoundRect*
0 Rectangle with rounded corners*
0 $1 Rounding radius*
0 $2 $3 $4 $5 $6 $7 $8 $9 X,Y pos of 4 corners*
0 Add a 4 corners polygon primitive as box body*
4,1,4,$2,$3,$4,$5,$6,$7,$8,$9,$2,$3,0*
0 Add four circle primitives for the rounded corners*
1,1,$1+$1,$2,$3*
1,1,$1+$1,$4,$5*
1,1,$1+$1,$6,$7*
1,1,$1+$1,$8,$9*
0 Add four rect primitives between the rounded corners*
20,1,$1+$1,$2,$3,$4,$5,0*
20,1,$1+$1,$4,$5,$6,$7,0*
20,1,$1+$1,$6,$7,$8,$9,0*
20,1,$1+$1,$8,$9,$2,$3,0*%
G04 Aperture macros list end*
%ADD10R,0.450000X0.450000*%
%ADD11RoundRect,0.150000X-0.625000X0.150000X-0.625000X-0.150000X0.625000X-0.150000X0.625000X0.150000X0*%
%ADD12RoundRect,0.250000X-0.650000X0.350000X-0.650000X-0.350000X0.650000X-0.350000X0.650000X0.350000X0*%
G04 APERTURE END LIST*
D10*
%TO.C,D76*%
X57150000Y-62125000D03*
X58000000Y-62125000D03*
X57150000Y-62975000D03*
X58000000Y-62975000D03*
%TD*%
%TO.C,D87*%
X61125000Y-63750000D03*
X61125000Y-64600000D03*
X60275000Y-63750000D03*
X60275000Y-64600000D03*
%TD*%
%TO.C,D66*%
X59562500Y-61350000D03*
X58712500Y-61350000D03*
X59562500Y-60500000D03*
X58712500Y-60500000D03*
%TD*%
%TO.C,D94*%
X60275000Y-65375000D03*
X61125000Y-65375000D03*
X60275000Y-66225000D03*
X61125000Y-66225000D03*
%TD*%
%TO.C,D83*%
X54875000Y-63750000D03*
X54875000Y-64600000D03*
X54025000Y-63750000D03*
X54025000Y-64600000D03*
%TD*%
%TO.C,D60*%
X50900000Y-58875000D03*
X51750000Y-58875000D03*
X50900000Y-59725000D03*
X51750000Y-59725000D03*
%TD*%
%TO.C,D59*%
X52462500Y-59725000D03*
X52462500Y-58875000D03*
X53312500Y-59725000D03*
X53312500Y-58875000D03*
%TD*%
%TO.C,D23*%
X54875000Y-54000000D03*
X54875000Y-54850000D03*
X54025000Y-54000000D03*
X54025000Y-54850000D03*
%TD*%
%TO.C,D22*%
X53312500Y-54850000D03*
X52462500Y-54850000D03*
X53312500Y-54000000D03*
X52462500Y-54000000D03*
%TD*%
%TO.C,D16*%
X57150000Y-52375000D03*
X58000000Y-52375000D03*
X57150000Y-53225000D03*
X58000000Y-53225000D03*
%TD*%
%TO.C,D37*%
X55587500Y-56475000D03*
X55587500Y-55625000D03*
X56437500Y-56475000D03*
X56437500Y-55625000D03*
%TD*%
%TO.C,D18*%
X54025000Y-52375000D03*
X54875000Y-52375000D03*
X54025000Y-53225000D03*
X54875000Y-53225000D03*
%TD*%
%TO.C,D82*%
X53312500Y-64600000D03*
X52462500Y-64600000D03*
X53312500Y-63750000D03*
X52462500Y-63750000D03*
%TD*%
%TO.C,D78*%
X54025000Y-62125000D03*
X54875000Y-62125000D03*
X54025000Y-62975000D03*
X54875000Y-62975000D03*
%TD*%
%TO.C,D5*%
X58000000Y-50750000D03*
X58000000Y-51600000D03*
X57150000Y-50750000D03*
X57150000Y-51600000D03*
%TD*%
%TO.C,D63*%
X54875000Y-60500000D03*
X54875000Y-61350000D03*
X54025000Y-60500000D03*
X54025000Y-61350000D03*
%TD*%
%TO.C,D100*%
X50900000Y-65375000D03*
X51750000Y-65375000D03*
X50900000Y-66225000D03*
X51750000Y-66225000D03*
%TD*%
%TO.C,D28*%
X62687500Y-54850000D03*
X61837500Y-54850000D03*
X62687500Y-54000000D03*
X61837500Y-54000000D03*
%TD*%
%TO.C,D10*%
X65812500Y-51600000D03*
X64962500Y-51600000D03*
X65812500Y-50750000D03*
X64962500Y-50750000D03*
%TD*%
%TO.C,D46*%
X59562500Y-58100000D03*
X58712500Y-58100000D03*
X59562500Y-57250000D03*
X58712500Y-57250000D03*
%TD*%
%TO.C,D98*%
X54025000Y-65375000D03*
X54875000Y-65375000D03*
X54025000Y-66225000D03*
X54875000Y-66225000D03*
%TD*%
%TO.C,D1*%
X51750000Y-50750000D03*
X51750000Y-51600000D03*
X50900000Y-50750000D03*
X50900000Y-51600000D03*
%TD*%
%TO.C,D43*%
X54875000Y-57250000D03*
X54875000Y-58100000D03*
X54025000Y-57250000D03*
X54025000Y-58100000D03*
%TD*%
%TO.C,D89*%
X64250000Y-63750000D03*
X64250000Y-64600000D03*
X63400000Y-63750000D03*
X63400000Y-64600000D03*
%TD*%
%TO.C,D77*%
X55587500Y-62975000D03*
X55587500Y-62125000D03*
X56437500Y-62975000D03*
X56437500Y-62125000D03*
%TD*%
%TO.C,D53*%
X61837500Y-59725000D03*
X61837500Y-58875000D03*
X62687500Y-59725000D03*
X62687500Y-58875000D03*
%TD*%
%TO.C,D90*%
X65812500Y-64600000D03*
X64962500Y-64600000D03*
X65812500Y-63750000D03*
X64962500Y-63750000D03*
%TD*%
%TO.C,D69*%
X64250000Y-60500000D03*
X64250000Y-61350000D03*
X63400000Y-60500000D03*
X63400000Y-61350000D03*
%TD*%
%TO.C,D38*%
X54025000Y-55625000D03*
X54875000Y-55625000D03*
X54025000Y-56475000D03*
X54875000Y-56475000D03*
%TD*%
%TO.C,D64*%
X56437500Y-61350000D03*
X55587500Y-61350000D03*
X56437500Y-60500000D03*
X55587500Y-60500000D03*
%TD*%
%TO.C,D67*%
X61125000Y-60500000D03*
X61125000Y-61350000D03*
X60275000Y-60500000D03*
X60275000Y-61350000D03*
%TD*%
%TO.C,D35*%
X58712500Y-56475000D03*
X58712500Y-55625000D03*
X59562500Y-56475000D03*
X59562500Y-55625000D03*
%TD*%
%TO.C,D2*%
X53312500Y-51600000D03*
X52462500Y-51600000D03*
X53312500Y-50750000D03*
X52462500Y-50750000D03*
%TD*%
%TO.C,D75*%
X58712500Y-62975000D03*
X58712500Y-62125000D03*
X59562500Y-62975000D03*
X59562500Y-62125000D03*
%TD*%
%TO.C,D57*%
X55587500Y-59725000D03*
X55587500Y-58875000D03*
X56437500Y-59725000D03*
X56437500Y-58875000D03*
%TD*%
%TO.C,D25*%
X58000000Y-54000000D03*
X58000000Y-54850000D03*
X57150000Y-54000000D03*
X57150000Y-54850000D03*
%TD*%
%TO.C,D45*%
X58000000Y-57250000D03*
X58000000Y-58100000D03*
X57150000Y-57250000D03*
X57150000Y-58100000D03*
%TD*%
%TO.C,D17*%
X55587500Y-53225000D03*
X55587500Y-52375000D03*
X56437500Y-53225000D03*
X56437500Y-52375000D03*
%TD*%
%TO.C,D21*%
X51750000Y-54000000D03*
X51750000Y-54850000D03*
X50900000Y-54000000D03*
X50900000Y-54850000D03*
%TD*%
%TO.C,D72*%
X63400000Y-62125000D03*
X64250000Y-62125000D03*
X63400000Y-62975000D03*
X64250000Y-62975000D03*
%TD*%
%TO.C,D99*%
X52462500Y-66225000D03*
X52462500Y-65375000D03*
X53312500Y-66225000D03*
X53312500Y-65375000D03*
%TD*%
%TO.C,D48*%
X62687500Y-58100000D03*
X61837500Y-58100000D03*
X62687500Y-57250000D03*
X61837500Y-57250000D03*
%TD*%
%TO.C,D32*%
X63400000Y-55625000D03*
X64250000Y-55625000D03*
X63400000Y-56475000D03*
X64250000Y-56475000D03*
%TD*%
%TO.C,D6*%
X59562500Y-51600000D03*
X58712500Y-51600000D03*
X59562500Y-50750000D03*
X58712500Y-50750000D03*
%TD*%
%TO.C,D79*%
X52462500Y-62975000D03*
X52462500Y-62125000D03*
X53312500Y-62975000D03*
X53312500Y-62125000D03*
%TD*%
%TO.C,D3*%
X54875000Y-50750000D03*
X54875000Y-51600000D03*
X54025000Y-50750000D03*
X54025000Y-51600000D03*
%TD*%
%TO.C,D24*%
X56437500Y-54850000D03*
X55587500Y-54850000D03*
X56437500Y-54000000D03*
X55587500Y-54000000D03*
%TD*%
%TO.C,D88*%
X62687500Y-64600000D03*
X61837500Y-64600000D03*
X62687500Y-63750000D03*
X61837500Y-63750000D03*
%TD*%
%TO.C,D19*%
X52462500Y-53225000D03*
X52462500Y-52375000D03*
X53312500Y-53225000D03*
X53312500Y-52375000D03*
%TD*%
%TO.C,D30*%
X65812500Y-54850000D03*
X64962500Y-54850000D03*
X65812500Y-54000000D03*
X64962500Y-54000000D03*
%TD*%
%TO.C,D91*%
X64962500Y-66225000D03*
X64962500Y-65375000D03*
X65812500Y-66225000D03*
X65812500Y-65375000D03*
%TD*%
%TO.C,D93*%
X61837500Y-66225000D03*
X61837500Y-65375000D03*
X62687500Y-66225000D03*
X62687500Y-65375000D03*
%TD*%
%TO.C,D50*%
X65812500Y-58100000D03*
X64962500Y-58100000D03*
X65812500Y-57250000D03*
X64962500Y-57250000D03*
%TD*%
D11*
%TO.C,J1*%
X68300000Y-54600000D03*
X68300000Y-55600000D03*
X68300000Y-56600000D03*
X68300000Y-57600000D03*
X68300000Y-58600000D03*
X68300000Y-59600000D03*
D12*
X70825000Y-53300000D03*
X70825000Y-60900000D03*
%TD*%
D10*
%TO.C,D14*%
X60275000Y-52375000D03*
X61125000Y-52375000D03*
X60275000Y-53225000D03*
X61125000Y-53225000D03*
%TD*%
%TO.C,D12*%
X63400000Y-52375000D03*
X64250000Y-52375000D03*
X63400000Y-53225000D03*
X64250000Y-53225000D03*
%TD*%
%TO.C,D86*%
X59562500Y-64600000D03*
X58712500Y-64600000D03*
X59562500Y-63750000D03*
X58712500Y-63750000D03*
%TD*%
%TO.C,D61*%
X51750000Y-60500000D03*
X51750000Y-61350000D03*
X50900000Y-60500000D03*
X50900000Y-61350000D03*
%TD*%
%TO.C,D70*%
X65812500Y-61350000D03*
X64962500Y-61350000D03*
X65812500Y-60500000D03*
X64962500Y-60500000D03*
%TD*%
%TO.C,D39*%
X52462500Y-56475000D03*
X52462500Y-55625000D03*
X53312500Y-56475000D03*
X53312500Y-55625000D03*
%TD*%
%TO.C,D44*%
X56437500Y-58100000D03*
X55587500Y-58100000D03*
X56437500Y-57250000D03*
X55587500Y-57250000D03*
%TD*%
%TO.C,D58*%
X54025000Y-58875000D03*
X54875000Y-58875000D03*
X54025000Y-59725000D03*
X54875000Y-59725000D03*
%TD*%
%TO.C,D42*%
X53312500Y-58100000D03*
X52462500Y-58100000D03*
X53312500Y-57250000D03*
X52462500Y-57250000D03*
%TD*%
%TO.C,D34*%
X60275000Y-55625000D03*
X61125000Y-55625000D03*
X60275000Y-56475000D03*
X61125000Y-56475000D03*
%TD*%
%TO.C,D4*%
X56437500Y-51600000D03*
X55587500Y-51600000D03*
X56437500Y-50750000D03*
X55587500Y-50750000D03*
%TD*%
%TO.C,D41*%
X51750000Y-57250000D03*
X51750000Y-58100000D03*
X50900000Y-57250000D03*
X50900000Y-58100000D03*
%TD*%
%TO.C,D97*%
X55587500Y-66225000D03*
X55587500Y-65375000D03*
X56437500Y-66225000D03*
X56437500Y-65375000D03*
%TD*%
%TO.C,D85*%
X58000000Y-63750000D03*
X58000000Y-64600000D03*
X57150000Y-63750000D03*
X57150000Y-64600000D03*
%TD*%
%TO.C,D65*%
X58000000Y-60500000D03*
X58000000Y-61350000D03*
X57150000Y-60500000D03*
X57150000Y-61350000D03*
%TD*%
%TO.C,D47*%
X61125000Y-57250000D03*
X61125000Y-58100000D03*
X60275000Y-57250000D03*
X60275000Y-58100000D03*
%TD*%
%TO.C,D51*%
X64962500Y-59725000D03*
X64962500Y-58875000D03*
X65812500Y-59725000D03*
X65812500Y-58875000D03*
%TD*%
%TO.C,D20*%
X50900000Y-52375000D03*
X51750000Y-52375000D03*
X50900000Y-53225000D03*
X51750000Y-53225000D03*
%TD*%
%TO.C,D27*%
X61125000Y-54000000D03*
X61125000Y-54850000D03*
X60275000Y-54000000D03*
X60275000Y-54850000D03*
%TD*%
%TO.C,D73*%
X61837500Y-62975000D03*
X61837500Y-62125000D03*
X62687500Y-62975000D03*
X62687500Y-62125000D03*
%TD*%
%TO.C,D80*%
X50900000Y-62125000D03*
X51750000Y-62125000D03*
X50900000Y-62975000D03*
X51750000Y-62975000D03*
%TD*%
%TO.C,D49*%
X64250000Y-57250000D03*
X64250000Y-58100000D03*
X63400000Y-57250000D03*
X63400000Y-58100000D03*
%TD*%
%TO.C,D13*%
X61837500Y-53225000D03*
X61837500Y-52375000D03*
X62687500Y-53225000D03*
X62687500Y-52375000D03*
%TD*%
%TO.C,D7*%
X61125000Y-50750000D03*
X61125000Y-51600000D03*
X60275000Y-50750000D03*
X60275000Y-51600000D03*
%TD*%
%TO.C,D31*%
X64962500Y-56475000D03*
X64962500Y-55625000D03*
X65812500Y-56475000D03*
X65812500Y-55625000D03*
%TD*%
%TO.C,D71*%
X64962500Y-62975000D03*
X64962500Y-62125000D03*
X65812500Y-62975000D03*
X65812500Y-62125000D03*
%TD*%
%TO.C,D54*%
X60275000Y-58875000D03*
X61125000Y-58875000D03*
X60275000Y-59725000D03*
X61125000Y-59725000D03*
%TD*%
%TO.C,D11*%
X64962500Y-53225000D03*
X64962500Y-52375000D03*
X65812500Y-53225000D03*
X65812500Y-52375000D03*
%TD*%
%TO.C,D26*%
X59562500Y-54850000D03*
X58712500Y-54850000D03*
X59562500Y-54000000D03*
X58712500Y-54000000D03*
%TD*%
%TO.C,D29*%
X64250000Y-54000000D03*
X64250000Y-54850000D03*
X63400000Y-54000000D03*
X63400000Y-54850000D03*
%TD*%
%TO.C,D96*%
X57150000Y-65375000D03*
X58000000Y-65375000D03*
X57150000Y-66225000D03*
X58000000Y-66225000D03*
%TD*%
%TO.C,D68*%
X62687500Y-61350000D03*
X61837500Y-61350000D03*
X62687500Y-60500000D03*
X61837500Y-60500000D03*
%TD*%
%TO.C,D81*%
X51750000Y-63750000D03*
X51750000Y-64600000D03*
X50900000Y-63750000D03*
X50900000Y-64600000D03*
%TD*%
%TO.C,D15*%
X58712500Y-53225000D03*
X58712500Y-52375000D03*
X59562500Y-53225000D03*
X59562500Y-52375000D03*
%TD*%
%TO.C,D33*%
X61837500Y-56475000D03*
X61837500Y-55625000D03*
X62687500Y-56475000D03*
X62687500Y-55625000D03*
%TD*%
%TO.C,D55*%
X58712500Y-59725000D03*
X58712500Y-58875000D03*
X59562500Y-59725000D03*
X59562500Y-58875000D03*
%TD*%
%TO.C,D8*%
X62687500Y-51600000D03*
X61837500Y-51600000D03*
X62687500Y-50750000D03*
X61837500Y-50750000D03*
%TD*%
%TO.C,D95*%
X58712500Y-66225000D03*
X58712500Y-65375000D03*
X59562500Y-66225000D03*
X59562500Y-65375000D03*
%TD*%
%TO.C,D9*%
X64250000Y-50750000D03*
X64250000Y-51600000D03*
X63400000Y-50750000D03*
X63400000Y-51600000D03*
%TD*%
%TO.C,D40*%
X50900000Y-55625000D03*
X51750000Y-55625000D03*
X50900000Y-56475000D03*
X51750000Y-56475000D03*
%TD*%
%TO.C,D56*%
X57150000Y-58875000D03*
X58000000Y-58875000D03*
X57150000Y-59725000D03*
X58000000Y-59725000D03*
%TD*%
%TO.C,D36*%
X57150000Y-55625000D03*
X58000000Y-55625000D03*
X57150000Y-56475000D03*
X58000000Y-56475000D03*
%TD*%
%TO.C,D92*%
X63400000Y-65375000D03*
X64250000Y-65375000D03*
X63400000Y-66225000D03*
X64250000Y-66225000D03*
%TD*%
%TO.C,D84*%
X56437500Y-64600000D03*
X55587500Y-64600000D03*
X56437500Y-63750000D03*
X55587500Y-63750000D03*
%TD*%
%TO.C,D74*%
X60275000Y-62125000D03*
X61125000Y-62125000D03*
X60275000Y-62975000D03*
X61125000Y-62975000D03*
%TD*%
%TO.C,D52*%
X63400000Y-58875000D03*
X64250000Y-58875000D03*
X63400000Y-59725000D03*
X64250000Y-59725000D03*
%TD*%
%TO.C,D62*%
X53312500Y-61350000D03*
X52462500Y-61350000D03*
X53312500Y-60500000D03*
X52462500Y-60500000D03*
%TD*%
M02*
