%TF.GenerationSoftware,KiCad,Pcbnew,9.0.7*%
%TF.CreationDate,2026-02-05T23:50:43+01:00*%
%TF.ProjectId,led_bage_sample,6c65645f-6261-4676-955f-73616d706c65,rev?*%
%TF.SameCoordinates,Original*%
%TF.FileFunction,Copper,L1,Top*%
%TF.FilePolarity,Positive*%
%FSLAX46Y46*%
G04 Gerber Fmt 4.6, Leading zero omitted, Abs format (unit mm)*
G04 Created by KiCad (PCBNEW 9.0.7) date 2026-02-05 23:50:43*
%MOMM*%
%LPD*%
G01*
G04 APERTURE LIST*
G04 Aperture macros list*
%AMRoundRect*
0 Rectangle with rounded corners*
0 $1 Rounding radius*
0 $2 $3 $4 $5 $6 $7 $8 $9 X,Y pos of 4 corners*
0 Add a 4 corners polygon primitive as box body*
4,1,4,$2,$3,$4,$5,$6,$7,$8,$9,$2,$3,0*
0 Add four circle primitives for the rounded corners*
1,1,$1+$1,$2,$3*
1,1,$1+$1,$4,$5*
1,1,$1+$1,$6,$7*
1,1,$1+$1,$8,$9*
0 Add four rect primitives between the rounded corners*
20,1,$1+$1,$2,$3,$4,$5,0*
20,1,$1+$1,$4,$5,$6,$7,0*
20,1,$1+$1,$6,$7,$8,$9,0*
20,1,$1+$1,$8,$9,$2,$3,0*%
G04 Aperture macros list end*
%TA.AperFunction,SMDPad,CuDef*%
%ADD10R,0.450000X0.450000*%
%TD*%
%TA.AperFunction,SMDPad,CuDef*%
%ADD11RoundRect,0.150000X-0.625000X0.150000X-0.625000X-0.150000X0.625000X-0.150000X0.625000X0.150000X0*%
%TD*%
%TA.AperFunction,SMDPad,CuDef*%
%ADD12RoundRect,0.250000X-0.650000X0.350000X-0.650000X-0.350000X0.650000X-0.350000X0.650000X0.350000X0*%
%TD*%
%TA.AperFunction,ViaPad*%
%ADD13C,0.400000*%
%TD*%
%TA.AperFunction,ViaPad*%
%ADD14C,0.600000*%
%TD*%
%TA.AperFunction,Conductor*%
%ADD15C,0.250000*%
%TD*%
%TA.AperFunction,Conductor*%
%ADD16C,0.500000*%
%TD*%
%TA.AperFunction,Conductor*%
%ADD17C,0.200000*%
%TD*%
%TA.AperFunction,Conductor*%
%ADD18C,0.100000*%
%TD*%
G04 APERTURE END LIST*
D10*
%TO.P,D76,1,DOUT*%
%TO.N,Net-(D76-DOUT)*%
X57150000Y-62125000D03*
%TO.P,D76,2,VDD*%
%TO.N,VDD*%
X58000000Y-62125000D03*
%TO.P,D76,3,GND*%
%TO.N,GND*%
X57150000Y-62975000D03*
%TO.P,D76,4,DIN*%
%TO.N,Net-(D75-DOUT)*%
X58000000Y-62975000D03*
%TD*%
%TO.P,D87,1,DOUT*%
%TO.N,Net-(D87-DOUT)*%
X61125000Y-63750000D03*
%TO.P,D87,2,VDD*%
%TO.N,VDD*%
X61125000Y-64600000D03*
%TO.P,D87,3,GND*%
%TO.N,GND*%
X60275000Y-63750000D03*
%TO.P,D87,4,DIN*%
%TO.N,Net-(D86-DOUT)*%
X60275000Y-64600000D03*
%TD*%
%TO.P,D66,1,DOUT*%
%TO.N,Net-(D66-DOUT)*%
X59562500Y-61350000D03*
%TO.P,D66,2,VDD*%
%TO.N,VDD*%
X58712500Y-61350000D03*
%TO.P,D66,3,GND*%
%TO.N,GND*%
X59562500Y-60500000D03*
%TO.P,D66,4,DIN*%
%TO.N,Net-(D65-DOUT)*%
X58712500Y-60500000D03*
%TD*%
%TO.P,D94,1,DOUT*%
%TO.N,Net-(D94-DOUT)*%
X60275000Y-65375000D03*
%TO.P,D94,2,VDD*%
%TO.N,VDD*%
X61125000Y-65375000D03*
%TO.P,D94,3,GND*%
%TO.N,GND*%
X60275000Y-66225000D03*
%TO.P,D94,4,DIN*%
%TO.N,Net-(D93-DOUT)*%
X61125000Y-66225000D03*
%TD*%
%TO.P,D83,1,DOUT*%
%TO.N,Net-(D83-DOUT)*%
X54875000Y-63750000D03*
%TO.P,D83,2,VDD*%
%TO.N,VDD*%
X54875000Y-64600000D03*
%TO.P,D83,3,GND*%
%TO.N,GND*%
X54025000Y-63750000D03*
%TO.P,D83,4,DIN*%
%TO.N,Net-(D82-DOUT)*%
X54025000Y-64600000D03*
%TD*%
%TO.P,D60,1,DOUT*%
%TO.N,Net-(D60-DOUT)*%
X50900000Y-58875000D03*
%TO.P,D60,2,VDD*%
%TO.N,VDD*%
X51750000Y-58875000D03*
%TO.P,D60,3,GND*%
%TO.N,GND*%
X50900000Y-59725000D03*
%TO.P,D60,4,DIN*%
%TO.N,Net-(D59-DOUT)*%
X51750000Y-59725000D03*
%TD*%
%TO.P,D59,1,DOUT*%
%TO.N,Net-(D59-DOUT)*%
X52462500Y-59725000D03*
%TO.P,D59,2,VDD*%
%TO.N,VDD*%
X52462500Y-58875000D03*
%TO.P,D59,3,GND*%
%TO.N,GND*%
X53312500Y-59725000D03*
%TO.P,D59,4,DIN*%
%TO.N,Net-(D58-DOUT)*%
X53312500Y-58875000D03*
%TD*%
%TO.P,D23,1,DOUT*%
%TO.N,Net-(D23-DOUT)*%
X54875000Y-54000000D03*
%TO.P,D23,2,VDD*%
%TO.N,VDD*%
X54875000Y-54850000D03*
%TO.P,D23,3,GND*%
%TO.N,GND*%
X54025000Y-54000000D03*
%TO.P,D23,4,DIN*%
%TO.N,Net-(D22-DOUT)*%
X54025000Y-54850000D03*
%TD*%
%TO.P,D22,1,DOUT*%
%TO.N,Net-(D22-DOUT)*%
X53312500Y-54850000D03*
%TO.P,D22,2,VDD*%
%TO.N,VDD*%
X52462500Y-54850000D03*
%TO.P,D22,3,GND*%
%TO.N,GND*%
X53312500Y-54000000D03*
%TO.P,D22,4,DIN*%
%TO.N,Net-(D21-DOUT)*%
X52462500Y-54000000D03*
%TD*%
%TO.P,D16,1,DOUT*%
%TO.N,Net-(D16-DOUT)*%
X57150000Y-52375000D03*
%TO.P,D16,2,VDD*%
%TO.N,VDD*%
X58000000Y-52375000D03*
%TO.P,D16,3,GND*%
%TO.N,GND*%
X57150000Y-53225000D03*
%TO.P,D16,4,DIN*%
%TO.N,Net-(D15-DOUT)*%
X58000000Y-53225000D03*
%TD*%
%TO.P,D37,1,DOUT*%
%TO.N,Net-(D37-DOUT)*%
X55587500Y-56475000D03*
%TO.P,D37,2,VDD*%
%TO.N,VDD*%
X55587500Y-55625000D03*
%TO.P,D37,3,GND*%
%TO.N,GND*%
X56437500Y-56475000D03*
%TO.P,D37,4,DIN*%
%TO.N,Net-(D36-DOUT)*%
X56437500Y-55625000D03*
%TD*%
%TO.P,D18,1,DOUT*%
%TO.N,Net-(D18-DOUT)*%
X54025000Y-52375000D03*
%TO.P,D18,2,VDD*%
%TO.N,VDD*%
X54875000Y-52375000D03*
%TO.P,D18,3,GND*%
%TO.N,GND*%
X54025000Y-53225000D03*
%TO.P,D18,4,DIN*%
%TO.N,Net-(D17-DOUT)*%
X54875000Y-53225000D03*
%TD*%
%TO.P,D82,1,DOUT*%
%TO.N,Net-(D82-DOUT)*%
X53312500Y-64600000D03*
%TO.P,D82,2,VDD*%
%TO.N,VDD*%
X52462500Y-64600000D03*
%TO.P,D82,3,GND*%
%TO.N,GND*%
X53312500Y-63750000D03*
%TO.P,D82,4,DIN*%
%TO.N,Net-(D81-DOUT)*%
X52462500Y-63750000D03*
%TD*%
%TO.P,D78,1,DOUT*%
%TO.N,Net-(D78-DOUT)*%
X54025000Y-62125000D03*
%TO.P,D78,2,VDD*%
%TO.N,VDD*%
X54875000Y-62125000D03*
%TO.P,D78,3,GND*%
%TO.N,GND*%
X54025000Y-62975000D03*
%TO.P,D78,4,DIN*%
%TO.N,Net-(D77-DOUT)*%
X54875000Y-62975000D03*
%TD*%
%TO.P,D5,1,DOUT*%
%TO.N,Net-(D5-DOUT)*%
X58000000Y-50750000D03*
%TO.P,D5,2,VDD*%
%TO.N,VDD*%
X58000000Y-51600000D03*
%TO.P,D5,3,GND*%
%TO.N,GND*%
X57150000Y-50750000D03*
%TO.P,D5,4,DIN*%
%TO.N,Net-(D4-DOUT)*%
X57150000Y-51600000D03*
%TD*%
%TO.P,D63,1,DOUT*%
%TO.N,Net-(D63-DOUT)*%
X54875000Y-60500000D03*
%TO.P,D63,2,VDD*%
%TO.N,VDD*%
X54875000Y-61350000D03*
%TO.P,D63,3,GND*%
%TO.N,GND*%
X54025000Y-60500000D03*
%TO.P,D63,4,DIN*%
%TO.N,Net-(D62-DOUT)*%
X54025000Y-61350000D03*
%TD*%
%TO.P,D100,1,DOUT*%
%TO.N,unconnected-(D100-DOUT-Pad1)*%
X50900000Y-65375000D03*
%TO.P,D100,2,VDD*%
%TO.N,VDD*%
X51750000Y-65375000D03*
%TO.P,D100,3,GND*%
%TO.N,GND*%
X50900000Y-66225000D03*
%TO.P,D100,4,DIN*%
%TO.N,Net-(D100-DIN)*%
X51750000Y-66225000D03*
%TD*%
%TO.P,D28,1,DOUT*%
%TO.N,Net-(D28-DOUT)*%
X62687500Y-54850000D03*
%TO.P,D28,2,VDD*%
%TO.N,VDD*%
X61837500Y-54850000D03*
%TO.P,D28,3,GND*%
%TO.N,GND*%
X62687500Y-54000000D03*
%TO.P,D28,4,DIN*%
%TO.N,Net-(D27-DOUT)*%
X61837500Y-54000000D03*
%TD*%
%TO.P,D10,1,DOUT*%
%TO.N,Net-(D10-DOUT)*%
X65812500Y-51600000D03*
%TO.P,D10,2,VDD*%
%TO.N,VDD*%
X64962500Y-51600000D03*
%TO.P,D10,3,GND*%
%TO.N,GND*%
X65812500Y-50750000D03*
%TO.P,D10,4,DIN*%
%TO.N,Net-(D10-DIN)*%
X64962500Y-50750000D03*
%TD*%
%TO.P,D46,1,DOUT*%
%TO.N,Net-(D46-DOUT)*%
X59562500Y-58100000D03*
%TO.P,D46,2,VDD*%
%TO.N,VDD*%
X58712500Y-58100000D03*
%TO.P,D46,3,GND*%
%TO.N,GND*%
X59562500Y-57250000D03*
%TO.P,D46,4,DIN*%
%TO.N,Net-(D45-DOUT)*%
X58712500Y-57250000D03*
%TD*%
%TO.P,D98,1,DOUT*%
%TO.N,Net-(D98-DOUT)*%
X54025000Y-65375000D03*
%TO.P,D98,2,VDD*%
%TO.N,VDD*%
X54875000Y-65375000D03*
%TO.P,D98,3,GND*%
%TO.N,GND*%
X54025000Y-66225000D03*
%TO.P,D98,4,DIN*%
%TO.N,Net-(D97-DOUT)*%
X54875000Y-66225000D03*
%TD*%
%TO.P,D1,1,DOUT*%
%TO.N,Net-(D1-DOUT)*%
X51750000Y-50750000D03*
%TO.P,D1,2,VDD*%
%TO.N,VDD*%
X51750000Y-51600000D03*
%TO.P,D1,3,GND*%
%TO.N,GND*%
X50900000Y-50750000D03*
%TO.P,D1,4,DIN*%
%TO.N,DATA1*%
X50900000Y-51600000D03*
%TD*%
%TO.P,D43,1,DOUT*%
%TO.N,Net-(D43-DOUT)*%
X54875000Y-57250000D03*
%TO.P,D43,2,VDD*%
%TO.N,VDD*%
X54875000Y-58100000D03*
%TO.P,D43,3,GND*%
%TO.N,GND*%
X54025000Y-57250000D03*
%TO.P,D43,4,DIN*%
%TO.N,Net-(D42-DOUT)*%
X54025000Y-58100000D03*
%TD*%
%TO.P,D89,1,DOUT*%
%TO.N,Net-(D89-DOUT)*%
X64250000Y-63750000D03*
%TO.P,D89,2,VDD*%
%TO.N,VDD*%
X64250000Y-64600000D03*
%TO.P,D89,3,GND*%
%TO.N,GND*%
X63400000Y-63750000D03*
%TO.P,D89,4,DIN*%
%TO.N,Net-(D88-DOUT)*%
X63400000Y-64600000D03*
%TD*%
%TO.P,D77,1,DOUT*%
%TO.N,Net-(D77-DOUT)*%
X55587500Y-62975000D03*
%TO.P,D77,2,VDD*%
%TO.N,VDD*%
X55587500Y-62125000D03*
%TO.P,D77,3,GND*%
%TO.N,GND*%
X56437500Y-62975000D03*
%TO.P,D77,4,DIN*%
%TO.N,Net-(D76-DOUT)*%
X56437500Y-62125000D03*
%TD*%
%TO.P,D53,1,DOUT*%
%TO.N,Net-(D53-DOUT)*%
X61837500Y-59725000D03*
%TO.P,D53,2,VDD*%
%TO.N,VDD*%
X61837500Y-58875000D03*
%TO.P,D53,3,GND*%
%TO.N,GND*%
X62687500Y-59725000D03*
%TO.P,D53,4,DIN*%
%TO.N,Net-(D52-DOUT)*%
X62687500Y-58875000D03*
%TD*%
%TO.P,D90,1,DOUT*%
%TO.N,Net-(D90-DOUT)*%
X65812500Y-64600000D03*
%TO.P,D90,2,VDD*%
%TO.N,VDD*%
X64962500Y-64600000D03*
%TO.P,D90,3,GND*%
%TO.N,GND*%
X65812500Y-63750000D03*
%TO.P,D90,4,DIN*%
%TO.N,Net-(D89-DOUT)*%
X64962500Y-63750000D03*
%TD*%
%TO.P,D69,1,DOUT*%
%TO.N,Net-(D69-DOUT)*%
X64250000Y-60500000D03*
%TO.P,D69,2,VDD*%
%TO.N,VDD*%
X64250000Y-61350000D03*
%TO.P,D69,3,GND*%
%TO.N,GND*%
X63400000Y-60500000D03*
%TO.P,D69,4,DIN*%
%TO.N,Net-(D68-DOUT)*%
X63400000Y-61350000D03*
%TD*%
%TO.P,D38,1,DOUT*%
%TO.N,Net-(D38-DOUT)*%
X54025000Y-55625000D03*
%TO.P,D38,2,VDD*%
%TO.N,VDD*%
X54875000Y-55625000D03*
%TO.P,D38,3,GND*%
%TO.N,GND*%
X54025000Y-56475000D03*
%TO.P,D38,4,DIN*%
%TO.N,Net-(D37-DOUT)*%
X54875000Y-56475000D03*
%TD*%
%TO.P,D64,1,DOUT*%
%TO.N,Net-(D64-DOUT)*%
X56437500Y-61350000D03*
%TO.P,D64,2,VDD*%
%TO.N,VDD*%
X55587500Y-61350000D03*
%TO.P,D64,3,GND*%
%TO.N,GND*%
X56437500Y-60500000D03*
%TO.P,D64,4,DIN*%
%TO.N,Net-(D63-DOUT)*%
X55587500Y-60500000D03*
%TD*%
%TO.P,D67,1,DOUT*%
%TO.N,Net-(D67-DOUT)*%
X61125000Y-60500000D03*
%TO.P,D67,2,VDD*%
%TO.N,VDD*%
X61125000Y-61350000D03*
%TO.P,D67,3,GND*%
%TO.N,GND*%
X60275000Y-60500000D03*
%TO.P,D67,4,DIN*%
%TO.N,Net-(D66-DOUT)*%
X60275000Y-61350000D03*
%TD*%
%TO.P,D35,1,DOUT*%
%TO.N,Net-(D35-DOUT)*%
X58712500Y-56475000D03*
%TO.P,D35,2,VDD*%
%TO.N,VDD*%
X58712500Y-55625000D03*
%TO.P,D35,3,GND*%
%TO.N,GND*%
X59562500Y-56475000D03*
%TO.P,D35,4,DIN*%
%TO.N,Net-(D34-DOUT)*%
X59562500Y-55625000D03*
%TD*%
%TO.P,D2,1,DOUT*%
%TO.N,Net-(D2-DOUT)*%
X53312500Y-51600000D03*
%TO.P,D2,2,VDD*%
%TO.N,VDD*%
X52462500Y-51600000D03*
%TO.P,D2,3,GND*%
%TO.N,GND*%
X53312500Y-50750000D03*
%TO.P,D2,4,DIN*%
%TO.N,Net-(D1-DOUT)*%
X52462500Y-50750000D03*
%TD*%
%TO.P,D75,1,DOUT*%
%TO.N,Net-(D75-DOUT)*%
X58712500Y-62975000D03*
%TO.P,D75,2,VDD*%
%TO.N,VDD*%
X58712500Y-62125000D03*
%TO.P,D75,3,GND*%
%TO.N,GND*%
X59562500Y-62975000D03*
%TO.P,D75,4,DIN*%
%TO.N,Net-(D74-DOUT)*%
X59562500Y-62125000D03*
%TD*%
%TO.P,D57,1,DOUT*%
%TO.N,Net-(D57-DOUT)*%
X55587500Y-59725000D03*
%TO.P,D57,2,VDD*%
%TO.N,VDD*%
X55587500Y-58875000D03*
%TO.P,D57,3,GND*%
%TO.N,GND*%
X56437500Y-59725000D03*
%TO.P,D57,4,DIN*%
%TO.N,Net-(D56-DOUT)*%
X56437500Y-58875000D03*
%TD*%
%TO.P,D25,1,DOUT*%
%TO.N,Net-(D25-DOUT)*%
X58000000Y-54000000D03*
%TO.P,D25,2,VDD*%
%TO.N,VDD*%
X58000000Y-54850000D03*
%TO.P,D25,3,GND*%
%TO.N,GND*%
X57150000Y-54000000D03*
%TO.P,D25,4,DIN*%
%TO.N,Net-(D24-DOUT)*%
X57150000Y-54850000D03*
%TD*%
%TO.P,D45,1,DOUT*%
%TO.N,Net-(D45-DOUT)*%
X58000000Y-57250000D03*
%TO.P,D45,2,VDD*%
%TO.N,VDD*%
X58000000Y-58100000D03*
%TO.P,D45,3,GND*%
%TO.N,GND*%
X57150000Y-57250000D03*
%TO.P,D45,4,DIN*%
%TO.N,Net-(D44-DOUT)*%
X57150000Y-58100000D03*
%TD*%
%TO.P,D17,1,DOUT*%
%TO.N,Net-(D17-DOUT)*%
X55587500Y-53225000D03*
%TO.P,D17,2,VDD*%
%TO.N,VDD*%
X55587500Y-52375000D03*
%TO.P,D17,3,GND*%
%TO.N,GND*%
X56437500Y-53225000D03*
%TO.P,D17,4,DIN*%
%TO.N,Net-(D16-DOUT)*%
X56437500Y-52375000D03*
%TD*%
%TO.P,D21,1,DOUT*%
%TO.N,Net-(D21-DOUT)*%
X51750000Y-54000000D03*
%TO.P,D21,2,VDD*%
%TO.N,VDD*%
X51750000Y-54850000D03*
%TO.P,D21,3,GND*%
%TO.N,GND*%
X50900000Y-54000000D03*
%TO.P,D21,4,DIN*%
%TO.N,Net-(D20-DOUT)*%
X50900000Y-54850000D03*
%TD*%
%TO.P,D72,1,DOUT*%
%TO.N,Net-(D72-DOUT)*%
X63400000Y-62125000D03*
%TO.P,D72,2,VDD*%
%TO.N,VDD*%
X64250000Y-62125000D03*
%TO.P,D72,3,GND*%
%TO.N,GND*%
X63400000Y-62975000D03*
%TO.P,D72,4,DIN*%
%TO.N,Net-(D71-DOUT)*%
X64250000Y-62975000D03*
%TD*%
%TO.P,D99,1,DOUT*%
%TO.N,Net-(D100-DIN)*%
X52462500Y-66225000D03*
%TO.P,D99,2,VDD*%
%TO.N,VDD*%
X52462500Y-65375000D03*
%TO.P,D99,3,GND*%
%TO.N,GND*%
X53312500Y-66225000D03*
%TO.P,D99,4,DIN*%
%TO.N,Net-(D98-DOUT)*%
X53312500Y-65375000D03*
%TD*%
%TO.P,D48,1,DOUT*%
%TO.N,Net-(D48-DOUT)*%
X62687500Y-58100000D03*
%TO.P,D48,2,VDD*%
%TO.N,VDD*%
X61837500Y-58100000D03*
%TO.P,D48,3,GND*%
%TO.N,GND*%
X62687500Y-57250000D03*
%TO.P,D48,4,DIN*%
%TO.N,Net-(D47-DOUT)*%
X61837500Y-57250000D03*
%TD*%
%TO.P,D32,1,DOUT*%
%TO.N,Net-(D32-DOUT)*%
X63400000Y-55625000D03*
%TO.P,D32,2,VDD*%
%TO.N,VDD*%
X64250000Y-55625000D03*
%TO.P,D32,3,GND*%
%TO.N,GND*%
X63400000Y-56475000D03*
%TO.P,D32,4,DIN*%
%TO.N,Net-(D31-DOUT)*%
X64250000Y-56475000D03*
%TD*%
%TO.P,D6,1,DOUT*%
%TO.N,Net-(D6-DOUT)*%
X59562500Y-51600000D03*
%TO.P,D6,2,VDD*%
%TO.N,VDD*%
X58712500Y-51600000D03*
%TO.P,D6,3,GND*%
%TO.N,GND*%
X59562500Y-50750000D03*
%TO.P,D6,4,DIN*%
%TO.N,Net-(D5-DOUT)*%
X58712500Y-50750000D03*
%TD*%
%TO.P,D79,1,DOUT*%
%TO.N,Net-(D79-DOUT)*%
X52462500Y-62975000D03*
%TO.P,D79,2,VDD*%
%TO.N,VDD*%
X52462500Y-62125000D03*
%TO.P,D79,3,GND*%
%TO.N,GND*%
X53312500Y-62975000D03*
%TO.P,D79,4,DIN*%
%TO.N,Net-(D78-DOUT)*%
X53312500Y-62125000D03*
%TD*%
%TO.P,D3,1,DOUT*%
%TO.N,Net-(D3-DOUT)*%
X54875000Y-50750000D03*
%TO.P,D3,2,VDD*%
%TO.N,VDD*%
X54875000Y-51600000D03*
%TO.P,D3,3,GND*%
%TO.N,GND*%
X54025000Y-50750000D03*
%TO.P,D3,4,DIN*%
%TO.N,Net-(D2-DOUT)*%
X54025000Y-51600000D03*
%TD*%
%TO.P,D24,1,DOUT*%
%TO.N,Net-(D24-DOUT)*%
X56437500Y-54850000D03*
%TO.P,D24,2,VDD*%
%TO.N,VDD*%
X55587500Y-54850000D03*
%TO.P,D24,3,GND*%
%TO.N,GND*%
X56437500Y-54000000D03*
%TO.P,D24,4,DIN*%
%TO.N,Net-(D23-DOUT)*%
X55587500Y-54000000D03*
%TD*%
%TO.P,D88,1,DOUT*%
%TO.N,Net-(D88-DOUT)*%
X62687500Y-64600000D03*
%TO.P,D88,2,VDD*%
%TO.N,VDD*%
X61837500Y-64600000D03*
%TO.P,D88,3,GND*%
%TO.N,GND*%
X62687500Y-63750000D03*
%TO.P,D88,4,DIN*%
%TO.N,Net-(D87-DOUT)*%
X61837500Y-63750000D03*
%TD*%
%TO.P,D19,1,DOUT*%
%TO.N,Net-(D19-DOUT)*%
X52462500Y-53225000D03*
%TO.P,D19,2,VDD*%
%TO.N,VDD*%
X52462500Y-52375000D03*
%TO.P,D19,3,GND*%
%TO.N,GND*%
X53312500Y-53225000D03*
%TO.P,D19,4,DIN*%
%TO.N,Net-(D18-DOUT)*%
X53312500Y-52375000D03*
%TD*%
%TO.P,D30,1,DOUT*%
%TO.N,Net-(D30-DOUT)*%
X65812500Y-54850000D03*
%TO.P,D30,2,VDD*%
%TO.N,VDD*%
X64962500Y-54850000D03*
%TO.P,D30,3,GND*%
%TO.N,GND*%
X65812500Y-54000000D03*
%TO.P,D30,4,DIN*%
%TO.N,Net-(D29-DOUT)*%
X64962500Y-54000000D03*
%TD*%
%TO.P,D91,1,DOUT*%
%TO.N,Net-(D91-DOUT)*%
X64962500Y-66225000D03*
%TO.P,D91,2,VDD*%
%TO.N,VDD*%
X64962500Y-65375000D03*
%TO.P,D91,3,GND*%
%TO.N,GND*%
X65812500Y-66225000D03*
%TO.P,D91,4,DIN*%
%TO.N,Net-(D90-DOUT)*%
X65812500Y-65375000D03*
%TD*%
%TO.P,D93,1,DOUT*%
%TO.N,Net-(D93-DOUT)*%
X61837500Y-66225000D03*
%TO.P,D93,2,VDD*%
%TO.N,VDD*%
X61837500Y-65375000D03*
%TO.P,D93,3,GND*%
%TO.N,GND*%
X62687500Y-66225000D03*
%TO.P,D93,4,DIN*%
%TO.N,Net-(D92-DOUT)*%
X62687500Y-65375000D03*
%TD*%
%TO.P,D50,1,DOUT*%
%TO.N,unconnected-(D50-DOUT-Pad1)*%
X65812500Y-58100000D03*
%TO.P,D50,2,VDD*%
%TO.N,VDD*%
X64962500Y-58100000D03*
%TO.P,D50,3,GND*%
%TO.N,GND*%
X65812500Y-57250000D03*
%TO.P,D50,4,DIN*%
%TO.N,Net-(D49-DOUT)*%
X64962500Y-57250000D03*
%TD*%
D11*
%TO.P,J1,1,Pin_1*%
%TO.N,DATA1*%
X68300000Y-54600000D03*
%TO.P,J1,2,Pin_2*%
%TO.N,DATA2*%
X68300000Y-55600000D03*
%TO.P,J1,3,Pin_3*%
%TO.N,GND*%
X68300000Y-56600000D03*
%TO.P,J1,4,Pin_4*%
X68300000Y-57600000D03*
%TO.P,J1,5,Pin_5*%
%TO.N,VDD*%
X68300000Y-58600000D03*
%TO.P,J1,6,Pin_6*%
X68300000Y-59600000D03*
D12*
%TO.P,J1,MP*%
%TO.N,N/C*%
X70825000Y-53300000D03*
X70825000Y-60900000D03*
%TD*%
D10*
%TO.P,D14,1,DOUT*%
%TO.N,Net-(D14-DOUT)*%
X60275000Y-52375000D03*
%TO.P,D14,2,VDD*%
%TO.N,VDD*%
X61125000Y-52375000D03*
%TO.P,D14,3,GND*%
%TO.N,GND*%
X60275000Y-53225000D03*
%TO.P,D14,4,DIN*%
%TO.N,Net-(D13-DOUT)*%
X61125000Y-53225000D03*
%TD*%
%TO.P,D12,1,DOUT*%
%TO.N,Net-(D12-DOUT)*%
X63400000Y-52375000D03*
%TO.P,D12,2,VDD*%
%TO.N,VDD*%
X64250000Y-52375000D03*
%TO.P,D12,3,GND*%
%TO.N,GND*%
X63400000Y-53225000D03*
%TO.P,D12,4,DIN*%
%TO.N,Net-(D11-DOUT)*%
X64250000Y-53225000D03*
%TD*%
%TO.P,D86,1,DOUT*%
%TO.N,Net-(D86-DOUT)*%
X59562500Y-64600000D03*
%TO.P,D86,2,VDD*%
%TO.N,VDD*%
X58712500Y-64600000D03*
%TO.P,D86,3,GND*%
%TO.N,GND*%
X59562500Y-63750000D03*
%TO.P,D86,4,DIN*%
%TO.N,Net-(D85-DOUT)*%
X58712500Y-63750000D03*
%TD*%
%TO.P,D61,1,DOUT*%
%TO.N,Net-(D61-DOUT)*%
X51750000Y-60500000D03*
%TO.P,D61,2,VDD*%
%TO.N,VDD*%
X51750000Y-61350000D03*
%TO.P,D61,3,GND*%
%TO.N,GND*%
X50900000Y-60500000D03*
%TO.P,D61,4,DIN*%
%TO.N,Net-(D60-DOUT)*%
X50900000Y-61350000D03*
%TD*%
%TO.P,D70,1,DOUT*%
%TO.N,Net-(D70-DOUT)*%
X65812500Y-61350000D03*
%TO.P,D70,2,VDD*%
%TO.N,VDD*%
X64962500Y-61350000D03*
%TO.P,D70,3,GND*%
%TO.N,GND*%
X65812500Y-60500000D03*
%TO.P,D70,4,DIN*%
%TO.N,Net-(D69-DOUT)*%
X64962500Y-60500000D03*
%TD*%
%TO.P,D39,1,DOUT*%
%TO.N,Net-(D39-DOUT)*%
X52462500Y-56475000D03*
%TO.P,D39,2,VDD*%
%TO.N,VDD*%
X52462500Y-55625000D03*
%TO.P,D39,3,GND*%
%TO.N,GND*%
X53312500Y-56475000D03*
%TO.P,D39,4,DIN*%
%TO.N,Net-(D38-DOUT)*%
X53312500Y-55625000D03*
%TD*%
%TO.P,D44,1,DOUT*%
%TO.N,Net-(D44-DOUT)*%
X56437500Y-58100000D03*
%TO.P,D44,2,VDD*%
%TO.N,VDD*%
X55587500Y-58100000D03*
%TO.P,D44,3,GND*%
%TO.N,GND*%
X56437500Y-57250000D03*
%TO.P,D44,4,DIN*%
%TO.N,Net-(D43-DOUT)*%
X55587500Y-57250000D03*
%TD*%
%TO.P,D58,1,DOUT*%
%TO.N,Net-(D58-DOUT)*%
X54025000Y-58875000D03*
%TO.P,D58,2,VDD*%
%TO.N,VDD*%
X54875000Y-58875000D03*
%TO.P,D58,3,GND*%
%TO.N,GND*%
X54025000Y-59725000D03*
%TO.P,D58,4,DIN*%
%TO.N,Net-(D57-DOUT)*%
X54875000Y-59725000D03*
%TD*%
%TO.P,D42,1,DOUT*%
%TO.N,Net-(D42-DOUT)*%
X53312500Y-58100000D03*
%TO.P,D42,2,VDD*%
%TO.N,VDD*%
X52462500Y-58100000D03*
%TO.P,D42,3,GND*%
%TO.N,GND*%
X53312500Y-57250000D03*
%TO.P,D42,4,DIN*%
%TO.N,Net-(D41-DOUT)*%
X52462500Y-57250000D03*
%TD*%
%TO.P,D34,1,DOUT*%
%TO.N,Net-(D34-DOUT)*%
X60275000Y-55625000D03*
%TO.P,D34,2,VDD*%
%TO.N,VDD*%
X61125000Y-55625000D03*
%TO.P,D34,3,GND*%
%TO.N,GND*%
X60275000Y-56475000D03*
%TO.P,D34,4,DIN*%
%TO.N,Net-(D33-DOUT)*%
X61125000Y-56475000D03*
%TD*%
%TO.P,D4,1,DOUT*%
%TO.N,Net-(D4-DOUT)*%
X56437500Y-51600000D03*
%TO.P,D4,2,VDD*%
%TO.N,VDD*%
X55587500Y-51600000D03*
%TO.P,D4,3,GND*%
%TO.N,GND*%
X56437500Y-50750000D03*
%TO.P,D4,4,DIN*%
%TO.N,Net-(D3-DOUT)*%
X55587500Y-50750000D03*
%TD*%
%TO.P,D41,1,DOUT*%
%TO.N,Net-(D41-DOUT)*%
X51750000Y-57250000D03*
%TO.P,D41,2,VDD*%
%TO.N,VDD*%
X51750000Y-58100000D03*
%TO.P,D41,3,GND*%
%TO.N,GND*%
X50900000Y-57250000D03*
%TO.P,D41,4,DIN*%
%TO.N,Net-(D40-DOUT)*%
X50900000Y-58100000D03*
%TD*%
%TO.P,D97,1,DOUT*%
%TO.N,Net-(D97-DOUT)*%
X55587500Y-66225000D03*
%TO.P,D97,2,VDD*%
%TO.N,VDD*%
X55587500Y-65375000D03*
%TO.P,D97,3,GND*%
%TO.N,GND*%
X56437500Y-66225000D03*
%TO.P,D97,4,DIN*%
%TO.N,Net-(D96-DOUT)*%
X56437500Y-65375000D03*
%TD*%
%TO.P,D85,1,DOUT*%
%TO.N,Net-(D85-DOUT)*%
X58000000Y-63750000D03*
%TO.P,D85,2,VDD*%
%TO.N,VDD*%
X58000000Y-64600000D03*
%TO.P,D85,3,GND*%
%TO.N,GND*%
X57150000Y-63750000D03*
%TO.P,D85,4,DIN*%
%TO.N,Net-(D84-DOUT)*%
X57150000Y-64600000D03*
%TD*%
%TO.P,D65,1,DOUT*%
%TO.N,Net-(D65-DOUT)*%
X58000000Y-60500000D03*
%TO.P,D65,2,VDD*%
%TO.N,VDD*%
X58000000Y-61350000D03*
%TO.P,D65,3,GND*%
%TO.N,GND*%
X57150000Y-60500000D03*
%TO.P,D65,4,DIN*%
%TO.N,Net-(D64-DOUT)*%
X57150000Y-61350000D03*
%TD*%
%TO.P,D47,1,DOUT*%
%TO.N,Net-(D47-DOUT)*%
X61125000Y-57250000D03*
%TO.P,D47,2,VDD*%
%TO.N,VDD*%
X61125000Y-58100000D03*
%TO.P,D47,3,GND*%
%TO.N,GND*%
X60275000Y-57250000D03*
%TO.P,D47,4,DIN*%
%TO.N,Net-(D46-DOUT)*%
X60275000Y-58100000D03*
%TD*%
%TO.P,D51,1,DOUT*%
%TO.N,Net-(D51-DOUT)*%
X64962500Y-59725000D03*
%TO.P,D51,2,VDD*%
%TO.N,VDD*%
X64962500Y-58875000D03*
%TO.P,D51,3,GND*%
%TO.N,GND*%
X65812500Y-59725000D03*
%TO.P,D51,4,DIN*%
%TO.N,DATA2*%
X65812500Y-58875000D03*
%TD*%
%TO.P,D20,1,DOUT*%
%TO.N,Net-(D20-DOUT)*%
X50900000Y-52375000D03*
%TO.P,D20,2,VDD*%
%TO.N,VDD*%
X51750000Y-52375000D03*
%TO.P,D20,3,GND*%
%TO.N,GND*%
X50900000Y-53225000D03*
%TO.P,D20,4,DIN*%
%TO.N,Net-(D19-DOUT)*%
X51750000Y-53225000D03*
%TD*%
%TO.P,D27,1,DOUT*%
%TO.N,Net-(D27-DOUT)*%
X61125000Y-54000000D03*
%TO.P,D27,2,VDD*%
%TO.N,VDD*%
X61125000Y-54850000D03*
%TO.P,D27,3,GND*%
%TO.N,GND*%
X60275000Y-54000000D03*
%TO.P,D27,4,DIN*%
%TO.N,Net-(D26-DOUT)*%
X60275000Y-54850000D03*
%TD*%
%TO.P,D73,1,DOUT*%
%TO.N,Net-(D73-DOUT)*%
X61837500Y-62975000D03*
%TO.P,D73,2,VDD*%
%TO.N,VDD*%
X61837500Y-62125000D03*
%TO.P,D73,3,GND*%
%TO.N,GND*%
X62687500Y-62975000D03*
%TO.P,D73,4,DIN*%
%TO.N,Net-(D72-DOUT)*%
X62687500Y-62125000D03*
%TD*%
%TO.P,D80,1,DOUT*%
%TO.N,Net-(D80-DOUT)*%
X50900000Y-62125000D03*
%TO.P,D80,2,VDD*%
%TO.N,VDD*%
X51750000Y-62125000D03*
%TO.P,D80,3,GND*%
%TO.N,GND*%
X50900000Y-62975000D03*
%TO.P,D80,4,DIN*%
%TO.N,Net-(D79-DOUT)*%
X51750000Y-62975000D03*
%TD*%
%TO.P,D49,1,DOUT*%
%TO.N,Net-(D49-DOUT)*%
X64250000Y-57250000D03*
%TO.P,D49,2,VDD*%
%TO.N,VDD*%
X64250000Y-58100000D03*
%TO.P,D49,3,GND*%
%TO.N,GND*%
X63400000Y-57250000D03*
%TO.P,D49,4,DIN*%
%TO.N,Net-(D48-DOUT)*%
X63400000Y-58100000D03*
%TD*%
%TO.P,D13,1,DOUT*%
%TO.N,Net-(D13-DOUT)*%
X61837500Y-53225000D03*
%TO.P,D13,2,VDD*%
%TO.N,VDD*%
X61837500Y-52375000D03*
%TO.P,D13,3,GND*%
%TO.N,GND*%
X62687500Y-53225000D03*
%TO.P,D13,4,DIN*%
%TO.N,Net-(D12-DOUT)*%
X62687500Y-52375000D03*
%TD*%
%TO.P,D7,1,DOUT*%
%TO.N,Net-(D7-DOUT)*%
X61125000Y-50750000D03*
%TO.P,D7,2,VDD*%
%TO.N,VDD*%
X61125000Y-51600000D03*
%TO.P,D7,3,GND*%
%TO.N,GND*%
X60275000Y-50750000D03*
%TO.P,D7,4,DIN*%
%TO.N,Net-(D6-DOUT)*%
X60275000Y-51600000D03*
%TD*%
%TO.P,D31,1,DOUT*%
%TO.N,Net-(D31-DOUT)*%
X64962500Y-56475000D03*
%TO.P,D31,2,VDD*%
%TO.N,VDD*%
X64962500Y-55625000D03*
%TO.P,D31,3,GND*%
%TO.N,GND*%
X65812500Y-56475000D03*
%TO.P,D31,4,DIN*%
%TO.N,Net-(D30-DOUT)*%
X65812500Y-55625000D03*
%TD*%
%TO.P,D71,1,DOUT*%
%TO.N,Net-(D71-DOUT)*%
X64962500Y-62975000D03*
%TO.P,D71,2,VDD*%
%TO.N,VDD*%
X64962500Y-62125000D03*
%TO.P,D71,3,GND*%
%TO.N,GND*%
X65812500Y-62975000D03*
%TO.P,D71,4,DIN*%
%TO.N,Net-(D70-DOUT)*%
X65812500Y-62125000D03*
%TD*%
%TO.P,D54,1,DOUT*%
%TO.N,Net-(D54-DOUT)*%
X60275000Y-58875000D03*
%TO.P,D54,2,VDD*%
%TO.N,VDD*%
X61125000Y-58875000D03*
%TO.P,D54,3,GND*%
%TO.N,GND*%
X60275000Y-59725000D03*
%TO.P,D54,4,DIN*%
%TO.N,Net-(D53-DOUT)*%
X61125000Y-59725000D03*
%TD*%
%TO.P,D11,1,DOUT*%
%TO.N,Net-(D11-DOUT)*%
X64962500Y-53225000D03*
%TO.P,D11,2,VDD*%
%TO.N,VDD*%
X64962500Y-52375000D03*
%TO.P,D11,3,GND*%
%TO.N,GND*%
X65812500Y-53225000D03*
%TO.P,D11,4,DIN*%
%TO.N,Net-(D10-DOUT)*%
X65812500Y-52375000D03*
%TD*%
%TO.P,D26,1,DOUT*%
%TO.N,Net-(D26-DOUT)*%
X59562500Y-54850000D03*
%TO.P,D26,2,VDD*%
%TO.N,VDD*%
X58712500Y-54850000D03*
%TO.P,D26,3,GND*%
%TO.N,GND*%
X59562500Y-54000000D03*
%TO.P,D26,4,DIN*%
%TO.N,Net-(D25-DOUT)*%
X58712500Y-54000000D03*
%TD*%
%TO.P,D29,1,DOUT*%
%TO.N,Net-(D29-DOUT)*%
X64250000Y-54000000D03*
%TO.P,D29,2,VDD*%
%TO.N,VDD*%
X64250000Y-54850000D03*
%TO.P,D29,3,GND*%
%TO.N,GND*%
X63400000Y-54000000D03*
%TO.P,D29,4,DIN*%
%TO.N,Net-(D28-DOUT)*%
X63400000Y-54850000D03*
%TD*%
%TO.P,D96,1,DOUT*%
%TO.N,Net-(D96-DOUT)*%
X57150000Y-65375000D03*
%TO.P,D96,2,VDD*%
%TO.N,VDD*%
X58000000Y-65375000D03*
%TO.P,D96,3,GND*%
%TO.N,GND*%
X57150000Y-66225000D03*
%TO.P,D96,4,DIN*%
%TO.N,Net-(D95-DOUT)*%
X58000000Y-66225000D03*
%TD*%
%TO.P,D68,1,DOUT*%
%TO.N,Net-(D68-DOUT)*%
X62687500Y-61350000D03*
%TO.P,D68,2,VDD*%
%TO.N,VDD*%
X61837500Y-61350000D03*
%TO.P,D68,3,GND*%
%TO.N,GND*%
X62687500Y-60500000D03*
%TO.P,D68,4,DIN*%
%TO.N,Net-(D67-DOUT)*%
X61837500Y-60500000D03*
%TD*%
%TO.P,D81,1,DOUT*%
%TO.N,Net-(D81-DOUT)*%
X51750000Y-63750000D03*
%TO.P,D81,2,VDD*%
%TO.N,VDD*%
X51750000Y-64600000D03*
%TO.P,D81,3,GND*%
%TO.N,GND*%
X50900000Y-63750000D03*
%TO.P,D81,4,DIN*%
%TO.N,Net-(D80-DOUT)*%
X50900000Y-64600000D03*
%TD*%
%TO.P,D15,1,DOUT*%
%TO.N,Net-(D15-DOUT)*%
X58712500Y-53225000D03*
%TO.P,D15,2,VDD*%
%TO.N,VDD*%
X58712500Y-52375000D03*
%TO.P,D15,3,GND*%
%TO.N,GND*%
X59562500Y-53225000D03*
%TO.P,D15,4,DIN*%
%TO.N,Net-(D14-DOUT)*%
X59562500Y-52375000D03*
%TD*%
%TO.P,D33,1,DOUT*%
%TO.N,Net-(D33-DOUT)*%
X61837500Y-56475000D03*
%TO.P,D33,2,VDD*%
%TO.N,VDD*%
X61837500Y-55625000D03*
%TO.P,D33,3,GND*%
%TO.N,GND*%
X62687500Y-56475000D03*
%TO.P,D33,4,DIN*%
%TO.N,Net-(D32-DOUT)*%
X62687500Y-55625000D03*
%TD*%
%TO.P,D55,1,DOUT*%
%TO.N,Net-(D55-DOUT)*%
X58712500Y-59725000D03*
%TO.P,D55,2,VDD*%
%TO.N,VDD*%
X58712500Y-58875000D03*
%TO.P,D55,3,GND*%
%TO.N,GND*%
X59562500Y-59725000D03*
%TO.P,D55,4,DIN*%
%TO.N,Net-(D54-DOUT)*%
X59562500Y-58875000D03*
%TD*%
%TO.P,D8,1,DOUT*%
%TO.N,Net-(D8-DOUT)*%
X62687500Y-51600000D03*
%TO.P,D8,2,VDD*%
%TO.N,VDD*%
X61837500Y-51600000D03*
%TO.P,D8,3,GND*%
%TO.N,GND*%
X62687500Y-50750000D03*
%TO.P,D8,4,DIN*%
%TO.N,Net-(D7-DOUT)*%
X61837500Y-50750000D03*
%TD*%
%TO.P,D95,1,DOUT*%
%TO.N,Net-(D95-DOUT)*%
X58712500Y-66225000D03*
%TO.P,D95,2,VDD*%
%TO.N,VDD*%
X58712500Y-65375000D03*
%TO.P,D95,3,GND*%
%TO.N,GND*%
X59562500Y-66225000D03*
%TO.P,D95,4,DIN*%
%TO.N,Net-(D94-DOUT)*%
X59562500Y-65375000D03*
%TD*%
%TO.P,D9,1,DOUT*%
%TO.N,Net-(D10-DIN)*%
X64250000Y-50750000D03*
%TO.P,D9,2,VDD*%
%TO.N,VDD*%
X64250000Y-51600000D03*
%TO.P,D9,3,GND*%
%TO.N,GND*%
X63400000Y-50750000D03*
%TO.P,D9,4,DIN*%
%TO.N,Net-(D8-DOUT)*%
X63400000Y-51600000D03*
%TD*%
%TO.P,D40,1,DOUT*%
%TO.N,Net-(D40-DOUT)*%
X50900000Y-55625000D03*
%TO.P,D40,2,VDD*%
%TO.N,VDD*%
X51750000Y-55625000D03*
%TO.P,D40,3,GND*%
%TO.N,GND*%
X50900000Y-56475000D03*
%TO.P,D40,4,DIN*%
%TO.N,Net-(D39-DOUT)*%
X51750000Y-56475000D03*
%TD*%
%TO.P,D56,1,DOUT*%
%TO.N,Net-(D56-DOUT)*%
X57150000Y-58875000D03*
%TO.P,D56,2,VDD*%
%TO.N,VDD*%
X58000000Y-58875000D03*
%TO.P,D56,3,GND*%
%TO.N,GND*%
X57150000Y-59725000D03*
%TO.P,D56,4,DIN*%
%TO.N,Net-(D55-DOUT)*%
X58000000Y-59725000D03*
%TD*%
%TO.P,D36,1,DOUT*%
%TO.N,Net-(D36-DOUT)*%
X57150000Y-55625000D03*
%TO.P,D36,2,VDD*%
%TO.N,VDD*%
X58000000Y-55625000D03*
%TO.P,D36,3,GND*%
%TO.N,GND*%
X57150000Y-56475000D03*
%TO.P,D36,4,DIN*%
%TO.N,Net-(D35-DOUT)*%
X58000000Y-56475000D03*
%TD*%
%TO.P,D92,1,DOUT*%
%TO.N,Net-(D92-DOUT)*%
X63400000Y-65375000D03*
%TO.P,D92,2,VDD*%
%TO.N,VDD*%
X64250000Y-65375000D03*
%TO.P,D92,3,GND*%
%TO.N,GND*%
X63400000Y-66225000D03*
%TO.P,D92,4,DIN*%
%TO.N,Net-(D91-DOUT)*%
X64250000Y-66225000D03*
%TD*%
%TO.P,D84,1,DOUT*%
%TO.N,Net-(D84-DOUT)*%
X56437500Y-64600000D03*
%TO.P,D84,2,VDD*%
%TO.N,VDD*%
X55587500Y-64600000D03*
%TO.P,D84,3,GND*%
%TO.N,GND*%
X56437500Y-63750000D03*
%TO.P,D84,4,DIN*%
%TO.N,Net-(D83-DOUT)*%
X55587500Y-63750000D03*
%TD*%
%TO.P,D74,1,DOUT*%
%TO.N,Net-(D74-DOUT)*%
X60275000Y-62125000D03*
%TO.P,D74,2,VDD*%
%TO.N,VDD*%
X61125000Y-62125000D03*
%TO.P,D74,3,GND*%
%TO.N,GND*%
X60275000Y-62975000D03*
%TO.P,D74,4,DIN*%
%TO.N,Net-(D73-DOUT)*%
X61125000Y-62975000D03*
%TD*%
%TO.P,D52,1,DOUT*%
%TO.N,Net-(D52-DOUT)*%
X63400000Y-58875000D03*
%TO.P,D52,2,VDD*%
%TO.N,VDD*%
X64250000Y-58875000D03*
%TO.P,D52,3,GND*%
%TO.N,GND*%
X63400000Y-59725000D03*
%TO.P,D52,4,DIN*%
%TO.N,Net-(D51-DOUT)*%
X64250000Y-59725000D03*
%TD*%
%TO.P,D62,1,DOUT*%
%TO.N,Net-(D62-DOUT)*%
X53312500Y-61350000D03*
%TO.P,D62,2,VDD*%
%TO.N,VDD*%
X52462500Y-61350000D03*
%TO.P,D62,3,GND*%
%TO.N,GND*%
X53312500Y-60500000D03*
%TO.P,D62,4,DIN*%
%TO.N,Net-(D61-DOUT)*%
X52462500Y-60500000D03*
%TD*%
D13*
%TO.N,VDD*%
X58400000Y-55300000D03*
%TO.N,GND*%
X66170000Y-60120000D03*
X53670000Y-53620000D03*
X56795000Y-56870000D03*
X53670000Y-50370000D03*
X50545000Y-56870000D03*
X63045000Y-63370000D03*
X63045000Y-53620000D03*
X59920000Y-53620000D03*
X59920000Y-50370000D03*
X59920000Y-60120000D03*
X66170000Y-53620000D03*
X66170000Y-56870000D03*
D14*
X69700000Y-57600000D03*
D13*
X66170000Y-50370000D03*
X53670000Y-60120000D03*
X59920000Y-63370000D03*
X50545000Y-50370000D03*
X50545000Y-66620000D03*
X59920000Y-66620000D03*
X53670000Y-66620000D03*
D14*
X69700000Y-56600000D03*
D13*
X56795000Y-66620000D03*
X63045000Y-50370000D03*
X63045000Y-56870000D03*
X50545000Y-60120000D03*
X56795000Y-63370000D03*
X59920000Y-56870000D03*
X53670000Y-56870000D03*
X53670000Y-63370000D03*
X66170000Y-63370000D03*
X50545000Y-53620000D03*
X56795000Y-53620000D03*
X50545000Y-63370000D03*
X56795000Y-50370000D03*
X63045000Y-60120000D03*
X63045000Y-66620000D03*
X66170000Y-66620000D03*
X56795000Y-60120000D03*
%TO.N,VDD*%
X52110000Y-55240000D03*
X58360000Y-58490000D03*
X64610000Y-64990000D03*
X61485000Y-55240000D03*
X61485000Y-58490000D03*
X55235000Y-51990000D03*
X61485000Y-64990000D03*
D14*
X69700000Y-59600000D03*
D13*
X52110000Y-64990000D03*
X52110000Y-51990000D03*
X58360000Y-64990000D03*
X55235000Y-61740000D03*
X52110000Y-61740000D03*
X55235000Y-64990000D03*
X64610000Y-51990000D03*
X58360000Y-61740000D03*
X61485000Y-51990000D03*
X64610000Y-58490000D03*
X55235000Y-55240000D03*
X52110000Y-58490000D03*
X58360000Y-51990000D03*
X64610000Y-61740000D03*
X64610000Y-55240000D03*
X55235000Y-58490000D03*
D14*
X69700000Y-58600000D03*
D13*
X61485000Y-61740000D03*
%TD*%
D15*
%TO.N,GND*%
X54025000Y-50750000D02*
X53670000Y-50370000D01*
X59920000Y-60145000D02*
X60275000Y-60500000D01*
X60275000Y-62975000D02*
X59920000Y-63370000D01*
X59562500Y-56475000D02*
X59920000Y-56870000D01*
X54025000Y-57250000D02*
X53670000Y-56870000D01*
X62687500Y-57250000D02*
X63045000Y-56870000D01*
X65812500Y-62975000D02*
X66170000Y-63370000D01*
D16*
X68300000Y-57600000D02*
X69700000Y-57600000D01*
D15*
X57150000Y-63750000D02*
X56795000Y-63370000D01*
X57150000Y-53225000D02*
X56795000Y-53620000D01*
X59562500Y-53225000D02*
X59920000Y-53620000D01*
X53312500Y-66225000D02*
X53670000Y-66620000D01*
X65812500Y-50750000D02*
X66170000Y-50370000D01*
D17*
X59920000Y-60120000D02*
X59920000Y-60080000D01*
D15*
X63400000Y-59725000D02*
X63045000Y-60120000D01*
X59920000Y-60142500D02*
X59562500Y-60500000D01*
X56437500Y-62975000D02*
X56795000Y-63370000D01*
X60275000Y-57250000D02*
X59920000Y-56870000D01*
X60275000Y-66225000D02*
X59920000Y-66620000D01*
X56437500Y-56475000D02*
X56795000Y-56870000D01*
X54025000Y-66225000D02*
X53670000Y-66620000D01*
X56795000Y-60080000D02*
X57150000Y-59725000D01*
X65812500Y-57250000D02*
X66170000Y-56870000D01*
X53312500Y-62975000D02*
X53670000Y-63370000D01*
D17*
X56795000Y-60120000D02*
X56795000Y-60142500D01*
D15*
X63400000Y-63750000D02*
X63045000Y-63370000D01*
X56437500Y-57250000D02*
X56795000Y-56870000D01*
X56437500Y-53225000D02*
X56795000Y-53620000D01*
X53312500Y-56475000D02*
X53670000Y-56870000D01*
X56795000Y-60142500D02*
X56437500Y-60500000D01*
X63400000Y-56475000D02*
X63045000Y-56870000D01*
X54025000Y-56475000D02*
X53670000Y-56870000D01*
X53312500Y-53225000D02*
X53670000Y-53620000D01*
D17*
X56795000Y-60120000D02*
X56795000Y-60080000D01*
D15*
X63400000Y-60500000D02*
X63045000Y-60120000D01*
X62687500Y-63750000D02*
X63045000Y-63370000D01*
X56437500Y-54000000D02*
X56795000Y-53620000D01*
X54025000Y-59725000D02*
X53670000Y-60120000D01*
X53312500Y-50750000D02*
X53670000Y-50370000D01*
X50900000Y-66225000D02*
X50545000Y-66620000D01*
X57150000Y-57250000D02*
X56795000Y-56870000D01*
X63400000Y-57250000D02*
X63045000Y-56870000D01*
X63400000Y-53225000D02*
X63045000Y-53620000D01*
X57150000Y-66225000D02*
X56795000Y-66620000D01*
D17*
X59562500Y-59725000D02*
X59562500Y-59762500D01*
D15*
X60275000Y-53225000D02*
X59920000Y-53620000D01*
X56437500Y-66225000D02*
X56795000Y-66620000D01*
D16*
X68300000Y-56600000D02*
X69700000Y-56600000D01*
D15*
X63400000Y-50750000D02*
X63045000Y-50370000D01*
X62687500Y-59725000D02*
X63045000Y-60120000D01*
X54025000Y-54000000D02*
X53670000Y-53620000D01*
X59562500Y-59762500D02*
X59920000Y-60120000D01*
X50900000Y-54000000D02*
X50545000Y-53620000D01*
D17*
X59920000Y-60120000D02*
X59920000Y-60145000D01*
D15*
X56795000Y-60082500D02*
X56437500Y-59725000D01*
X65812500Y-59725000D02*
X66170000Y-60120000D01*
X62687500Y-62975000D02*
X63045000Y-63370000D01*
X56437500Y-50750000D02*
X56795000Y-50370000D01*
X65812500Y-54000000D02*
X66170000Y-53620000D01*
X50900000Y-56475000D02*
X50545000Y-56870000D01*
X63400000Y-62975000D02*
X63045000Y-63370000D01*
X63400000Y-66225000D02*
X63045000Y-66620000D01*
X59920000Y-60080000D02*
X60275000Y-59725000D01*
X56437500Y-63750000D02*
X56795000Y-63370000D01*
X65812500Y-66225000D02*
X66170000Y-66620000D01*
X57150000Y-50750000D02*
X56795000Y-50370000D01*
X63400000Y-54000000D02*
X63045000Y-53620000D01*
X60275000Y-56475000D02*
X59920000Y-56870000D01*
X59562500Y-54000000D02*
X59920000Y-53620000D01*
X54025000Y-53225000D02*
X53670000Y-53620000D01*
X50900000Y-59725000D02*
X50545000Y-60120000D01*
X50900000Y-62975000D02*
X50545000Y-63370000D01*
X60275000Y-50750000D02*
X59920000Y-50370000D01*
D17*
X56795000Y-60142500D02*
X56795000Y-60145000D01*
D15*
X53312500Y-59725000D02*
X53670000Y-60120000D01*
X60275000Y-54000000D02*
X59920000Y-53620000D01*
X59562500Y-57250000D02*
X59920000Y-56870000D01*
X65812500Y-53225000D02*
X66170000Y-53620000D01*
X62687500Y-53225000D02*
X63045000Y-53620000D01*
X62687500Y-56475000D02*
X63045000Y-56870000D01*
X59562500Y-50750000D02*
X59920000Y-50370000D01*
X59562500Y-66225000D02*
X59920000Y-66620000D01*
X65812500Y-56475000D02*
X66170000Y-56870000D01*
X50900000Y-57250000D02*
X50545000Y-56870000D01*
X62687500Y-66225000D02*
X63045000Y-66620000D01*
X53312500Y-54000000D02*
X53670000Y-53620000D01*
X62687500Y-54000000D02*
X63045000Y-53620000D01*
X54025000Y-62975000D02*
X53670000Y-63370000D01*
X56795000Y-60145000D02*
X57150000Y-60500000D01*
X53312500Y-60500000D02*
X53670000Y-60120000D01*
X59562500Y-63750000D02*
X59920000Y-63370000D01*
X53312500Y-57250000D02*
X53670000Y-56870000D01*
D17*
X56795000Y-60120000D02*
X56795000Y-60082500D01*
D15*
X50900000Y-60500000D02*
X50545000Y-60120000D01*
D17*
X59920000Y-60120000D02*
X59920000Y-60142500D01*
D15*
X57150000Y-54000000D02*
X56795000Y-53620000D01*
X54025000Y-63750000D02*
X53670000Y-63370000D01*
X54025000Y-60500000D02*
X53670000Y-60120000D01*
X57150000Y-62975000D02*
X56795000Y-63370000D01*
X62687500Y-60500000D02*
X63045000Y-60120000D01*
X50900000Y-53225000D02*
X50545000Y-53620000D01*
X53312500Y-63750000D02*
X53670000Y-63370000D01*
X50900000Y-63750000D02*
X50545000Y-63370000D01*
X50900000Y-50750000D02*
X50545000Y-50370000D01*
X59562500Y-62975000D02*
X59920000Y-63370000D01*
X60275000Y-63750000D02*
X59920000Y-63370000D01*
X65812500Y-63750000D02*
X66170000Y-63370000D01*
X62687500Y-50750000D02*
X63045000Y-50370000D01*
X65812500Y-60500000D02*
X66170000Y-60120000D01*
X57150000Y-56475000D02*
X56795000Y-56870000D01*
D18*
%TO.N,Net-(D1-DOUT)*%
X51750000Y-50750000D02*
X52462500Y-50750000D01*
D15*
%TO.N,DATA1*%
X68300000Y-51650057D02*
X68300000Y-54600000D01*
X50296057Y-49769000D02*
X66418943Y-49769000D01*
X50900000Y-51600000D02*
X49944000Y-50644000D01*
X49944000Y-50644000D02*
X49944000Y-50121057D01*
X66418943Y-49769000D02*
X68300000Y-51650057D01*
X49944000Y-50121057D02*
X50296057Y-49769000D01*
%TO.N,VDD*%
X61837500Y-64600000D02*
X61485000Y-64990000D01*
X52462500Y-65375000D02*
X52110000Y-64990000D01*
X64250000Y-61350000D02*
X64610000Y-61740000D01*
X64962500Y-52375000D02*
X64610000Y-51990000D01*
X58000000Y-55625000D02*
X58360000Y-55240000D01*
X55587500Y-52375000D02*
X55235000Y-51990000D01*
X64250000Y-64600000D02*
X64610000Y-64990000D01*
X61125000Y-55625000D02*
X61485000Y-55240000D01*
X61125000Y-64600000D02*
X61485000Y-64990000D01*
X52462500Y-51600000D02*
X52110000Y-51990000D01*
X52462500Y-52375000D02*
X52110000Y-51990000D01*
X61125000Y-65375000D02*
X61485000Y-64990000D01*
X55587500Y-61350000D02*
X55235000Y-61740000D01*
X51750000Y-64600000D02*
X52110000Y-64990000D01*
X55587500Y-65375000D02*
X55235000Y-64990000D01*
X51750000Y-62125000D02*
X52110000Y-61740000D01*
X64962500Y-51600000D02*
X64610000Y-51990000D01*
X51750000Y-51600000D02*
X52110000Y-51990000D01*
X64250000Y-58100000D02*
X64610000Y-58490000D01*
X61125000Y-51600000D02*
X61485000Y-51990000D01*
X64962500Y-65375000D02*
X64610000Y-64990000D01*
X52462500Y-54850000D02*
X52110000Y-55240000D01*
X61837500Y-58100000D02*
X61485000Y-58490000D01*
X61837500Y-58875000D02*
X61485000Y-58490000D01*
D16*
X68300000Y-59600000D02*
X69700000Y-59600000D01*
D15*
X64250000Y-65375000D02*
X64610000Y-64990000D01*
X54875000Y-64600000D02*
X55235000Y-64990000D01*
X58712500Y-65375000D02*
X58360000Y-64990000D01*
X58712500Y-61350000D02*
X58360000Y-61740000D01*
X55587500Y-58100000D02*
X55235000Y-58490000D01*
X64962500Y-62125000D02*
X64610000Y-61740000D01*
X52462500Y-55625000D02*
X52110000Y-55240000D01*
X64962500Y-61350000D02*
X64610000Y-61740000D01*
X54875000Y-54850000D02*
X55235000Y-55240000D01*
X61837500Y-65375000D02*
X61485000Y-64990000D01*
X61125000Y-58100000D02*
X61485000Y-58490000D01*
X54875000Y-58100000D02*
X55235000Y-58490000D01*
X61837500Y-55625000D02*
X61485000Y-55240000D01*
X64250000Y-54850000D02*
X64610000Y-55240000D01*
X51750000Y-52375000D02*
X52110000Y-51990000D01*
X52462500Y-58100000D02*
X52110000Y-58490000D01*
X61837500Y-51600000D02*
X61485000Y-51990000D01*
X64250000Y-52375000D02*
X64610000Y-51990000D01*
X64250000Y-51600000D02*
X64610000Y-51990000D01*
X58000000Y-52375000D02*
X58360000Y-51990000D01*
X54875000Y-61350000D02*
X55235000Y-61740000D01*
X55587500Y-58875000D02*
X55235000Y-58490000D01*
X51750000Y-58100000D02*
X52110000Y-58490000D01*
X64962500Y-58875000D02*
X64610000Y-58490000D01*
X58712500Y-52375000D02*
X58360000Y-51990000D01*
X61125000Y-61350000D02*
X61485000Y-61740000D01*
X58712500Y-58875000D02*
X58360000Y-58490000D01*
X61837500Y-62125000D02*
X61485000Y-61740000D01*
X51750000Y-65375000D02*
X52110000Y-64990000D01*
X52462500Y-58875000D02*
X52110000Y-58490000D01*
X54875000Y-51600000D02*
X55235000Y-51990000D01*
X55587500Y-54850000D02*
X55235000Y-55240000D01*
X51750000Y-55625000D02*
X52110000Y-55240000D01*
X55587500Y-55625000D02*
X55235000Y-55240000D01*
X55587500Y-64600000D02*
X55235000Y-64990000D01*
X58000000Y-64600000D02*
X58360000Y-64990000D01*
X58000000Y-54850000D02*
X58360000Y-55240000D01*
X54875000Y-58875000D02*
X55235000Y-58490000D01*
X54875000Y-52375000D02*
X55235000Y-51990000D01*
X54875000Y-55625000D02*
X55235000Y-55240000D01*
X58712500Y-51600000D02*
X58360000Y-51990000D01*
X61837500Y-61350000D02*
X61485000Y-61740000D01*
X58000000Y-51600000D02*
X58360000Y-51990000D01*
X58712500Y-58100000D02*
X58360000Y-58490000D01*
X61837500Y-54850000D02*
X61485000Y-55240000D01*
X58712500Y-55625000D02*
X58360000Y-55240000D01*
X52462500Y-61350000D02*
X52110000Y-61740000D01*
D16*
X68300000Y-58600000D02*
X69700000Y-58600000D01*
D15*
X64962500Y-54850000D02*
X64610000Y-55240000D01*
X61125000Y-52375000D02*
X61485000Y-51990000D01*
X64250000Y-62125000D02*
X64610000Y-61740000D01*
X58000000Y-58875000D02*
X58360000Y-58490000D01*
X52462500Y-64600000D02*
X52110000Y-64990000D01*
X58000000Y-61350000D02*
X58360000Y-61740000D01*
X58712500Y-64600000D02*
X58360000Y-64990000D01*
X61125000Y-54850000D02*
X61485000Y-55240000D01*
X58000000Y-62125000D02*
X58360000Y-61740000D01*
X58000000Y-65375000D02*
X58360000Y-64990000D01*
X61125000Y-62125000D02*
X61485000Y-61740000D01*
X58712500Y-54850000D02*
X58360000Y-55240000D01*
X54875000Y-62125000D02*
X55235000Y-61740000D01*
X61837500Y-52375000D02*
X61485000Y-51990000D01*
X54875000Y-65375000D02*
X55235000Y-64990000D01*
X64962500Y-58100000D02*
X64610000Y-58490000D01*
X58000000Y-58100000D02*
X58360000Y-58490000D01*
X64962500Y-64600000D02*
X64610000Y-64990000D01*
X64962500Y-55625000D02*
X64610000Y-55240000D01*
X51750000Y-58875000D02*
X52110000Y-58490000D01*
X51750000Y-54850000D02*
X52110000Y-55240000D01*
X61125000Y-58875000D02*
X61485000Y-58490000D01*
X51750000Y-61350000D02*
X52110000Y-61740000D01*
X55587500Y-51600000D02*
X55235000Y-51990000D01*
X55587500Y-62125000D02*
X55235000Y-61740000D01*
X64250000Y-55625000D02*
X64610000Y-55240000D01*
X52462500Y-62125000D02*
X52110000Y-61740000D01*
X64250000Y-58875000D02*
X64610000Y-58490000D01*
X58712500Y-62125000D02*
X58360000Y-61740000D01*
D18*
%TO.N,Net-(D2-DOUT)*%
X53312500Y-51600000D02*
X54025000Y-51600000D01*
%TO.N,Net-(D3-DOUT)*%
X54875000Y-50750000D02*
X55587500Y-50750000D01*
%TO.N,Net-(D4-DOUT)*%
X56437500Y-51600000D02*
X57150000Y-51600000D01*
%TO.N,Net-(D5-DOUT)*%
X58000000Y-50750000D02*
X58712500Y-50750000D01*
%TO.N,Net-(D6-DOUT)*%
X59562500Y-51600000D02*
X60275000Y-51600000D01*
%TO.N,Net-(D7-DOUT)*%
X61125000Y-50750000D02*
X61837500Y-50750000D01*
%TO.N,Net-(D8-DOUT)*%
X62687500Y-51600000D02*
X63400000Y-51600000D01*
%TO.N,Net-(D10-DIN)*%
X64250000Y-50750000D02*
X64962500Y-50750000D01*
D17*
%TO.N,Net-(D10-DOUT)*%
X65812500Y-51600000D02*
X65812500Y-52375000D01*
D18*
%TO.N,Net-(D11-DOUT)*%
X64962500Y-53225000D02*
X64250000Y-53225000D01*
%TO.N,Net-(D12-DOUT)*%
X63400000Y-52375000D02*
X62687500Y-52375000D01*
%TO.N,Net-(D13-DOUT)*%
X61837500Y-53225000D02*
X61125000Y-53225000D01*
%TO.N,Net-(D14-DOUT)*%
X60275000Y-52375000D02*
X59562500Y-52375000D01*
%TO.N,Net-(D15-DOUT)*%
X58712500Y-53225000D02*
X58000000Y-53225000D01*
%TO.N,Net-(D16-DOUT)*%
X57150000Y-52375000D02*
X56437500Y-52375000D01*
%TO.N,Net-(D17-DOUT)*%
X55587500Y-53225000D02*
X54875000Y-53225000D01*
%TO.N,Net-(D18-DOUT)*%
X54025000Y-52375000D02*
X53312500Y-52375000D01*
%TO.N,Net-(D19-DOUT)*%
X52462500Y-53225000D02*
X51750000Y-53225000D01*
D17*
%TO.N,Net-(D20-DOUT)*%
X50044000Y-53994000D02*
X50900000Y-54850000D01*
X50900000Y-52375000D02*
X50044000Y-53231000D01*
X50044000Y-53231000D02*
X50044000Y-53994000D01*
D18*
%TO.N,Net-(D21-DOUT)*%
X51750000Y-54000000D02*
X52462500Y-54000000D01*
%TO.N,Net-(D22-DOUT)*%
X53312500Y-54850000D02*
X54025000Y-54850000D01*
%TO.N,Net-(D23-DOUT)*%
X54875000Y-54000000D02*
X55587500Y-54000000D01*
%TO.N,Net-(D24-DOUT)*%
X56437500Y-54850000D02*
X57150000Y-54850000D01*
%TO.N,Net-(D25-DOUT)*%
X58000000Y-54000000D02*
X58712500Y-54000000D01*
%TO.N,Net-(D26-DOUT)*%
X59562500Y-54850000D02*
X60275000Y-54850000D01*
%TO.N,Net-(D27-DOUT)*%
X61125000Y-54000000D02*
X61837500Y-54000000D01*
%TO.N,Net-(D28-DOUT)*%
X62687500Y-54850000D02*
X63400000Y-54850000D01*
%TO.N,Net-(D29-DOUT)*%
X64250000Y-54000000D02*
X64962500Y-54000000D01*
D17*
%TO.N,Net-(D30-DOUT)*%
X65812500Y-54850000D02*
X65812500Y-55625000D01*
D18*
%TO.N,Net-(D31-DOUT)*%
X64962500Y-56475000D02*
X64250000Y-56475000D01*
%TO.N,Net-(D32-DOUT)*%
X63400000Y-55625000D02*
X62687500Y-55625000D01*
%TO.N,Net-(D33-DOUT)*%
X61837500Y-56475000D02*
X61125000Y-56475000D01*
%TO.N,Net-(D34-DOUT)*%
X60275000Y-55625000D02*
X59562500Y-55625000D01*
%TO.N,Net-(D35-DOUT)*%
X58712500Y-56475000D02*
X58000000Y-56475000D01*
%TO.N,Net-(D36-DOUT)*%
X57150000Y-55625000D02*
X56437500Y-55625000D01*
%TO.N,Net-(D37-DOUT)*%
X55587500Y-56475000D02*
X54875000Y-56475000D01*
%TO.N,Net-(D38-DOUT)*%
X54025000Y-55625000D02*
X53312500Y-55625000D01*
%TO.N,Net-(D39-DOUT)*%
X52462500Y-56475000D02*
X51750000Y-56475000D01*
D17*
%TO.N,Net-(D40-DOUT)*%
X50044000Y-57244000D02*
X50900000Y-58100000D01*
X50900000Y-55625000D02*
X50044000Y-56481000D01*
X50044000Y-56481000D02*
X50044000Y-57244000D01*
D18*
%TO.N,Net-(D41-DOUT)*%
X51750000Y-57250000D02*
X52462500Y-57250000D01*
%TO.N,Net-(D42-DOUT)*%
X53312500Y-58100000D02*
X54025000Y-58100000D01*
%TO.N,Net-(D43-DOUT)*%
X54875000Y-57250000D02*
X55587500Y-57250000D01*
%TO.N,Net-(D44-DOUT)*%
X56437500Y-58100000D02*
X57150000Y-58100000D01*
%TO.N,Net-(D45-DOUT)*%
X58000000Y-57250000D02*
X58712500Y-57250000D01*
%TO.N,Net-(D46-DOUT)*%
X59562500Y-58100000D02*
X60275000Y-58100000D01*
%TO.N,Net-(D47-DOUT)*%
X61125000Y-57250000D02*
X61837500Y-57250000D01*
%TO.N,Net-(D48-DOUT)*%
X62687500Y-58100000D02*
X63400000Y-58100000D01*
%TO.N,Net-(D49-DOUT)*%
X64250000Y-57250000D02*
X64962500Y-57250000D01*
D15*
%TO.N,DATA2*%
X66900000Y-56225001D02*
X67525001Y-55600000D01*
X67525001Y-55600000D02*
X68300000Y-55600000D01*
X66900000Y-57787500D02*
X66900000Y-56225001D01*
X66900000Y-57787500D02*
X65812500Y-58875000D01*
D18*
%TO.N,Net-(D51-DOUT)*%
X64962500Y-59725000D02*
X64250000Y-59725000D01*
%TO.N,Net-(D52-DOUT)*%
X63400000Y-58875000D02*
X62687500Y-58875000D01*
%TO.N,Net-(D53-DOUT)*%
X61837500Y-59725000D02*
X61125000Y-59725000D01*
%TO.N,Net-(D54-DOUT)*%
X60275000Y-58875000D02*
X59562500Y-58875000D01*
%TO.N,Net-(D55-DOUT)*%
X58712500Y-59725000D02*
X58000000Y-59725000D01*
%TO.N,Net-(D56-DOUT)*%
X57150000Y-58875000D02*
X56437500Y-58875000D01*
%TO.N,Net-(D57-DOUT)*%
X55587500Y-59725000D02*
X54875000Y-59725000D01*
%TO.N,Net-(D58-DOUT)*%
X54025000Y-58875000D02*
X53312500Y-58875000D01*
%TO.N,Net-(D59-DOUT)*%
X52462500Y-59725000D02*
X51750000Y-59725000D01*
D17*
%TO.N,Net-(D60-DOUT)*%
X50900000Y-58875000D02*
X50044000Y-59731000D01*
X50044000Y-59731000D02*
X50044000Y-60494000D01*
X50044000Y-60494000D02*
X50900000Y-61350000D01*
D18*
%TO.N,Net-(D61-DOUT)*%
X51750000Y-60500000D02*
X52462500Y-60500000D01*
%TO.N,Net-(D62-DOUT)*%
X53312500Y-61350000D02*
X54025000Y-61350000D01*
%TO.N,Net-(D63-DOUT)*%
X54875000Y-60500000D02*
X55587500Y-60500000D01*
%TO.N,Net-(D64-DOUT)*%
X56437500Y-61350000D02*
X57150000Y-61350000D01*
%TO.N,Net-(D65-DOUT)*%
X58000000Y-60500000D02*
X58712500Y-60500000D01*
%TO.N,Net-(D66-DOUT)*%
X59562500Y-61350000D02*
X60275000Y-61350000D01*
%TO.N,Net-(D67-DOUT)*%
X61125000Y-60500000D02*
X61837500Y-60500000D01*
%TO.N,Net-(D68-DOUT)*%
X62687500Y-61350000D02*
X63400000Y-61350000D01*
%TO.N,Net-(D69-DOUT)*%
X64250000Y-60500000D02*
X64962500Y-60500000D01*
D17*
%TO.N,Net-(D70-DOUT)*%
X65812500Y-62125000D02*
X65812500Y-61350000D01*
D18*
%TO.N,Net-(D71-DOUT)*%
X64962500Y-62975000D02*
X64250000Y-62975000D01*
%TO.N,Net-(D72-DOUT)*%
X63400000Y-62125000D02*
X62687500Y-62125000D01*
%TO.N,Net-(D73-DOUT)*%
X61837500Y-62975000D02*
X61125000Y-62975000D01*
%TO.N,Net-(D74-DOUT)*%
X60275000Y-62125000D02*
X59562500Y-62125000D01*
%TO.N,Net-(D75-DOUT)*%
X58712500Y-62975000D02*
X58000000Y-62975000D01*
%TO.N,Net-(D76-DOUT)*%
X57150000Y-62125000D02*
X56437500Y-62125000D01*
%TO.N,Net-(D77-DOUT)*%
X55587500Y-62975000D02*
X54875000Y-62975000D01*
%TO.N,Net-(D78-DOUT)*%
X54025000Y-62125000D02*
X53312500Y-62125000D01*
%TO.N,Net-(D79-DOUT)*%
X52462500Y-62975000D02*
X51750000Y-62975000D01*
D17*
%TO.N,Net-(D80-DOUT)*%
X50044000Y-63744000D02*
X50900000Y-64600000D01*
X50044000Y-62981000D02*
X50044000Y-63744000D01*
X50900000Y-62125000D02*
X50044000Y-62981000D01*
D18*
%TO.N,Net-(D81-DOUT)*%
X51750000Y-63750000D02*
X52462500Y-63750000D01*
%TO.N,Net-(D82-DOUT)*%
X53312500Y-64600000D02*
X54025000Y-64600000D01*
%TO.N,Net-(D83-DOUT)*%
X54875000Y-63750000D02*
X55587500Y-63750000D01*
%TO.N,Net-(D84-DOUT)*%
X56437500Y-64600000D02*
X57150000Y-64600000D01*
%TO.N,Net-(D85-DOUT)*%
X58000000Y-63750000D02*
X58712500Y-63750000D01*
%TO.N,Net-(D86-DOUT)*%
X59562500Y-64600000D02*
X60275000Y-64600000D01*
%TO.N,Net-(D87-DOUT)*%
X61125000Y-63750000D02*
X61837500Y-63750000D01*
%TO.N,Net-(D88-DOUT)*%
X62687500Y-64600000D02*
X63400000Y-64600000D01*
%TO.N,Net-(D89-DOUT)*%
X64250000Y-63750000D02*
X64962500Y-63750000D01*
D17*
%TO.N,Net-(D90-DOUT)*%
X65812500Y-65375000D02*
X65812500Y-64600000D01*
D18*
%TO.N,Net-(D91-DOUT)*%
X64962500Y-66225000D02*
X64250000Y-66225000D01*
%TO.N,Net-(D92-DOUT)*%
X63400000Y-65375000D02*
X62687500Y-65375000D01*
%TO.N,Net-(D93-DOUT)*%
X61837500Y-66225000D02*
X61125000Y-66225000D01*
%TO.N,Net-(D94-DOUT)*%
X60275000Y-65375000D02*
X59562500Y-65375000D01*
%TO.N,Net-(D95-DOUT)*%
X58712500Y-66225000D02*
X58000000Y-66225000D01*
%TO.N,Net-(D96-DOUT)*%
X57150000Y-65375000D02*
X56437500Y-65375000D01*
%TO.N,Net-(D97-DOUT)*%
X55587500Y-66225000D02*
X54875000Y-66225000D01*
%TO.N,Net-(D98-DOUT)*%
X54025000Y-65375000D02*
X53312500Y-65375000D01*
%TO.N,Net-(D100-DIN)*%
X52462500Y-66225000D02*
X51750000Y-66225000D01*
%TD*%
M02*
