%TF.GenerationSoftware,KiCad,Pcbnew,9.0.7*%
%TF.CreationDate,2026-02-05T23:50:43+01:00*%
%TF.ProjectId,led_bage_sample,6c65645f-6261-4676-955f-73616d706c65,rev?*%
%TF.SameCoordinates,Original*%
%TF.FileFunction,Copper,L2,Inr*%
%TF.FilePolarity,Positive*%
%FSLAX46Y46*%
G04 Gerber Fmt 4.6, Leading zero omitted, Abs format (unit mm)*
G04 Created by KiCad (PCBNEW 9.0.7) date 2026-02-05 23:50:43*
%MOMM*%
%LPD*%
G01*
G04 APERTURE LIST*
%TA.AperFunction,ViaPad*%
%ADD10C,0.400000*%
%TD*%
%TA.AperFunction,ViaPad*%
%ADD11C,0.600000*%
%TD*%
%TA.AperFunction,Conductor*%
%ADD12C,1.000000*%
%TD*%
%TA.AperFunction,Conductor*%
%ADD13C,0.200000*%
%TD*%
G04 APERTURE END LIST*
D10*
%TO.N,VDD*%
X58400000Y-55300000D03*
%TO.N,GND*%
X66170000Y-60120000D03*
X53670000Y-53620000D03*
X56795000Y-56870000D03*
X53670000Y-50370000D03*
X50545000Y-56870000D03*
X63045000Y-63370000D03*
X63045000Y-53620000D03*
X59920000Y-53620000D03*
X59920000Y-50370000D03*
X59920000Y-60120000D03*
X66170000Y-53620000D03*
X66170000Y-56870000D03*
D11*
X69700000Y-57600000D03*
D10*
X66170000Y-50370000D03*
X53670000Y-60120000D03*
X59920000Y-63370000D03*
X50545000Y-50370000D03*
X50545000Y-66620000D03*
X59920000Y-66620000D03*
X53670000Y-66620000D03*
D11*
X69700000Y-56600000D03*
D10*
X56795000Y-66620000D03*
X63045000Y-50370000D03*
X63045000Y-56870000D03*
X50545000Y-60120000D03*
X56795000Y-63370000D03*
X59920000Y-56870000D03*
X53670000Y-56870000D03*
X53670000Y-63370000D03*
X66170000Y-63370000D03*
X50545000Y-53620000D03*
X56795000Y-53620000D03*
X50545000Y-63370000D03*
X56795000Y-50370000D03*
X63045000Y-60120000D03*
X63045000Y-66620000D03*
X66170000Y-66620000D03*
X56795000Y-60120000D03*
%TO.N,VDD*%
X52110000Y-55240000D03*
X58360000Y-58490000D03*
X64610000Y-64990000D03*
X61485000Y-55240000D03*
X61485000Y-58490000D03*
X55235000Y-51990000D03*
X61485000Y-64990000D03*
D11*
X69700000Y-59600000D03*
D10*
X52110000Y-64990000D03*
X52110000Y-51990000D03*
X58360000Y-64990000D03*
X55235000Y-61740000D03*
X52110000Y-61740000D03*
X55235000Y-64990000D03*
X64610000Y-51990000D03*
X58360000Y-61740000D03*
X61485000Y-51990000D03*
X64610000Y-58490000D03*
X55235000Y-55240000D03*
X52110000Y-58490000D03*
X58360000Y-51990000D03*
X64610000Y-61740000D03*
X64610000Y-55240000D03*
X55235000Y-58490000D03*
D11*
X69700000Y-58600000D03*
D10*
X61485000Y-61740000D03*
%TD*%
D12*
%TO.N,GND*%
X69100000Y-60700000D02*
X66750000Y-60700000D01*
D13*
X69100000Y-60700000D02*
X68840000Y-60700000D01*
D12*
X68840000Y-60700000D02*
X66170000Y-63370000D01*
X66750000Y-60700000D02*
X66170000Y-60120000D01*
%TD*%
%TA.AperFunction,Conductor*%
%TO.N,GND*%
G36*
X72792539Y-49250185D02*
G01*
X72838294Y-49302989D01*
X72849500Y-49354500D01*
X72849500Y-69475500D01*
X72829815Y-69542539D01*
X72777011Y-69588294D01*
X72725500Y-69599500D01*
X49364500Y-69599500D01*
X49297461Y-69579815D01*
X49251706Y-69527011D01*
X49240500Y-69475500D01*
X49240500Y-65058995D01*
X51409499Y-65058995D01*
X51436418Y-65194322D01*
X51436421Y-65194332D01*
X51489221Y-65321804D01*
X51489228Y-65321817D01*
X51565885Y-65436541D01*
X51565888Y-65436545D01*
X51663454Y-65534111D01*
X51663458Y-65534114D01*
X51778182Y-65610771D01*
X51778195Y-65610778D01*
X51905667Y-65663578D01*
X51905672Y-65663580D01*
X51905676Y-65663580D01*
X51905677Y-65663581D01*
X52041004Y-65690500D01*
X52041007Y-65690500D01*
X52178995Y-65690500D01*
X52270041Y-65672389D01*
X52314328Y-65663580D01*
X52441811Y-65610775D01*
X52556542Y-65534114D01*
X52654114Y-65436542D01*
X52730775Y-65321811D01*
X52783580Y-65194328D01*
X52810500Y-65058995D01*
X54534499Y-65058995D01*
X54561418Y-65194322D01*
X54561421Y-65194332D01*
X54614221Y-65321804D01*
X54614228Y-65321817D01*
X54690885Y-65436541D01*
X54690888Y-65436545D01*
X54788454Y-65534111D01*
X54788458Y-65534114D01*
X54903182Y-65610771D01*
X54903195Y-65610778D01*
X55030667Y-65663578D01*
X55030672Y-65663580D01*
X55030676Y-65663580D01*
X55030677Y-65663581D01*
X55166004Y-65690500D01*
X55166007Y-65690500D01*
X55303995Y-65690500D01*
X55395041Y-65672389D01*
X55439328Y-65663580D01*
X55566811Y-65610775D01*
X55681542Y-65534114D01*
X55779114Y-65436542D01*
X55855775Y-65321811D01*
X55908580Y-65194328D01*
X55935500Y-65058995D01*
X57659499Y-65058995D01*
X57686418Y-65194322D01*
X57686421Y-65194332D01*
X57739221Y-65321804D01*
X57739228Y-65321817D01*
X57815885Y-65436541D01*
X57815888Y-65436545D01*
X57913454Y-65534111D01*
X57913458Y-65534114D01*
X58028182Y-65610771D01*
X58028195Y-65610778D01*
X58155667Y-65663578D01*
X58155672Y-65663580D01*
X58155676Y-65663580D01*
X58155677Y-65663581D01*
X58291004Y-65690500D01*
X58291007Y-65690500D01*
X58428995Y-65690500D01*
X58520041Y-65672389D01*
X58564328Y-65663580D01*
X58691811Y-65610775D01*
X58806542Y-65534114D01*
X58904114Y-65436542D01*
X58980775Y-65321811D01*
X59033580Y-65194328D01*
X59060500Y-65058995D01*
X60784499Y-65058995D01*
X60811418Y-65194322D01*
X60811421Y-65194332D01*
X60864221Y-65321804D01*
X60864228Y-65321817D01*
X60940885Y-65436541D01*
X60940888Y-65436545D01*
X61038454Y-65534111D01*
X61038458Y-65534114D01*
X61153182Y-65610771D01*
X61153195Y-65610778D01*
X61280667Y-65663578D01*
X61280672Y-65663580D01*
X61280676Y-65663580D01*
X61280677Y-65663581D01*
X61416004Y-65690500D01*
X61416007Y-65690500D01*
X61553995Y-65690500D01*
X61645041Y-65672389D01*
X61689328Y-65663580D01*
X61816811Y-65610775D01*
X61931542Y-65534114D01*
X62029114Y-65436542D01*
X62105775Y-65321811D01*
X62158580Y-65194328D01*
X62185500Y-65058995D01*
X63909499Y-65058995D01*
X63936418Y-65194322D01*
X63936421Y-65194332D01*
X63989221Y-65321804D01*
X63989228Y-65321817D01*
X64065885Y-65436541D01*
X64065888Y-65436545D01*
X64163454Y-65534111D01*
X64163458Y-65534114D01*
X64278182Y-65610771D01*
X64278195Y-65610778D01*
X64405667Y-65663578D01*
X64405672Y-65663580D01*
X64405676Y-65663580D01*
X64405677Y-65663581D01*
X64541004Y-65690500D01*
X64541007Y-65690500D01*
X64678995Y-65690500D01*
X64770041Y-65672389D01*
X64814328Y-65663580D01*
X64941811Y-65610775D01*
X65056542Y-65534114D01*
X65154114Y-65436542D01*
X65230775Y-65321811D01*
X65283580Y-65194328D01*
X65310500Y-65058993D01*
X65310500Y-64921007D01*
X65310500Y-64921004D01*
X65283581Y-64785677D01*
X65283580Y-64785676D01*
X65283580Y-64785672D01*
X65283578Y-64785667D01*
X65230778Y-64658195D01*
X65230771Y-64658182D01*
X65154114Y-64543458D01*
X65154111Y-64543454D01*
X65056545Y-64445888D01*
X65056541Y-64445885D01*
X64941817Y-64369228D01*
X64941804Y-64369221D01*
X64814332Y-64316421D01*
X64814322Y-64316418D01*
X64678995Y-64289500D01*
X64678993Y-64289500D01*
X64541007Y-64289500D01*
X64541005Y-64289500D01*
X64405677Y-64316418D01*
X64405667Y-64316421D01*
X64278195Y-64369221D01*
X64278182Y-64369228D01*
X64163458Y-64445885D01*
X64163454Y-64445888D01*
X64065888Y-64543454D01*
X64065885Y-64543458D01*
X63989228Y-64658182D01*
X63989221Y-64658195D01*
X63936421Y-64785667D01*
X63936418Y-64785677D01*
X63909500Y-64921004D01*
X63909500Y-64921007D01*
X63909500Y-65058993D01*
X63909500Y-65058995D01*
X63909499Y-65058995D01*
X62185500Y-65058995D01*
X62185500Y-65058993D01*
X62185500Y-64921007D01*
X62185500Y-64921004D01*
X62158581Y-64785677D01*
X62158580Y-64785676D01*
X62158580Y-64785672D01*
X62158578Y-64785667D01*
X62105778Y-64658195D01*
X62105771Y-64658182D01*
X62029114Y-64543458D01*
X62029111Y-64543454D01*
X61931545Y-64445888D01*
X61931541Y-64445885D01*
X61816817Y-64369228D01*
X61816804Y-64369221D01*
X61689332Y-64316421D01*
X61689322Y-64316418D01*
X61553995Y-64289500D01*
X61553993Y-64289500D01*
X61416007Y-64289500D01*
X61416005Y-64289500D01*
X61280677Y-64316418D01*
X61280667Y-64316421D01*
X61153195Y-64369221D01*
X61153182Y-64369228D01*
X61038458Y-64445885D01*
X61038454Y-64445888D01*
X60940888Y-64543454D01*
X60940885Y-64543458D01*
X60864228Y-64658182D01*
X60864221Y-64658195D01*
X60811421Y-64785667D01*
X60811418Y-64785677D01*
X60784500Y-64921004D01*
X60784500Y-64921007D01*
X60784500Y-65058993D01*
X60784500Y-65058995D01*
X60784499Y-65058995D01*
X59060500Y-65058995D01*
X59060500Y-65058993D01*
X59060500Y-64921007D01*
X59060500Y-64921004D01*
X59033581Y-64785677D01*
X59033580Y-64785676D01*
X59033580Y-64785672D01*
X59033578Y-64785667D01*
X58980778Y-64658195D01*
X58980771Y-64658182D01*
X58904114Y-64543458D01*
X58904111Y-64543454D01*
X58806545Y-64445888D01*
X58806541Y-64445885D01*
X58691817Y-64369228D01*
X58691804Y-64369221D01*
X58564332Y-64316421D01*
X58564322Y-64316418D01*
X58428995Y-64289500D01*
X58428993Y-64289500D01*
X58291007Y-64289500D01*
X58291005Y-64289500D01*
X58155677Y-64316418D01*
X58155667Y-64316421D01*
X58028195Y-64369221D01*
X58028182Y-64369228D01*
X57913458Y-64445885D01*
X57913454Y-64445888D01*
X57815888Y-64543454D01*
X57815885Y-64543458D01*
X57739228Y-64658182D01*
X57739221Y-64658195D01*
X57686421Y-64785667D01*
X57686418Y-64785677D01*
X57659500Y-64921004D01*
X57659500Y-64921007D01*
X57659500Y-65058993D01*
X57659500Y-65058995D01*
X57659499Y-65058995D01*
X55935500Y-65058995D01*
X55935500Y-65058993D01*
X55935500Y-64921007D01*
X55935500Y-64921004D01*
X55908581Y-64785677D01*
X55908580Y-64785676D01*
X55908580Y-64785672D01*
X55908578Y-64785667D01*
X55855778Y-64658195D01*
X55855771Y-64658182D01*
X55779114Y-64543458D01*
X55779111Y-64543454D01*
X55681545Y-64445888D01*
X55681541Y-64445885D01*
X55566817Y-64369228D01*
X55566804Y-64369221D01*
X55439332Y-64316421D01*
X55439322Y-64316418D01*
X55303995Y-64289500D01*
X55303993Y-64289500D01*
X55166007Y-64289500D01*
X55166005Y-64289500D01*
X55030677Y-64316418D01*
X55030667Y-64316421D01*
X54903195Y-64369221D01*
X54903182Y-64369228D01*
X54788458Y-64445885D01*
X54788454Y-64445888D01*
X54690888Y-64543454D01*
X54690885Y-64543458D01*
X54614228Y-64658182D01*
X54614221Y-64658195D01*
X54561421Y-64785667D01*
X54561418Y-64785677D01*
X54534500Y-64921004D01*
X54534500Y-64921007D01*
X54534500Y-65058993D01*
X54534500Y-65058995D01*
X54534499Y-65058995D01*
X52810500Y-65058995D01*
X52810500Y-65058993D01*
X52810500Y-64921007D01*
X52810500Y-64921004D01*
X52783581Y-64785677D01*
X52783580Y-64785676D01*
X52783580Y-64785672D01*
X52783578Y-64785667D01*
X52730778Y-64658195D01*
X52730771Y-64658182D01*
X52654114Y-64543458D01*
X52654111Y-64543454D01*
X52556545Y-64445888D01*
X52556541Y-64445885D01*
X52441817Y-64369228D01*
X52441804Y-64369221D01*
X52314332Y-64316421D01*
X52314322Y-64316418D01*
X52178995Y-64289500D01*
X52178993Y-64289500D01*
X52041007Y-64289500D01*
X52041005Y-64289500D01*
X51905677Y-64316418D01*
X51905667Y-64316421D01*
X51778195Y-64369221D01*
X51778182Y-64369228D01*
X51663458Y-64445885D01*
X51663454Y-64445888D01*
X51565888Y-64543454D01*
X51565885Y-64543458D01*
X51489228Y-64658182D01*
X51489221Y-64658195D01*
X51436421Y-64785667D01*
X51436418Y-64785677D01*
X51409500Y-64921004D01*
X51409500Y-64921007D01*
X51409500Y-65058993D01*
X51409500Y-65058995D01*
X51409499Y-65058995D01*
X49240500Y-65058995D01*
X49240500Y-61808995D01*
X51409499Y-61808995D01*
X51436418Y-61944322D01*
X51436421Y-61944332D01*
X51489221Y-62071804D01*
X51489228Y-62071817D01*
X51565885Y-62186541D01*
X51565888Y-62186545D01*
X51663454Y-62284111D01*
X51663458Y-62284114D01*
X51778182Y-62360771D01*
X51778195Y-62360778D01*
X51905667Y-62413578D01*
X51905672Y-62413580D01*
X51905676Y-62413580D01*
X51905677Y-62413581D01*
X52041004Y-62440500D01*
X52041007Y-62440500D01*
X52178995Y-62440500D01*
X52270041Y-62422389D01*
X52314328Y-62413580D01*
X52441811Y-62360775D01*
X52556542Y-62284114D01*
X52654114Y-62186542D01*
X52730775Y-62071811D01*
X52783580Y-61944328D01*
X52810500Y-61808995D01*
X54534499Y-61808995D01*
X54561418Y-61944322D01*
X54561421Y-61944332D01*
X54614221Y-62071804D01*
X54614228Y-62071817D01*
X54690885Y-62186541D01*
X54690888Y-62186545D01*
X54788454Y-62284111D01*
X54788458Y-62284114D01*
X54903182Y-62360771D01*
X54903195Y-62360778D01*
X55030667Y-62413578D01*
X55030672Y-62413580D01*
X55030676Y-62413580D01*
X55030677Y-62413581D01*
X55166004Y-62440500D01*
X55166007Y-62440500D01*
X55303995Y-62440500D01*
X55395041Y-62422389D01*
X55439328Y-62413580D01*
X55566811Y-62360775D01*
X55681542Y-62284114D01*
X55779114Y-62186542D01*
X55855775Y-62071811D01*
X55908580Y-61944328D01*
X55935500Y-61808995D01*
X57659499Y-61808995D01*
X57686418Y-61944322D01*
X57686421Y-61944332D01*
X57739221Y-62071804D01*
X57739228Y-62071817D01*
X57815885Y-62186541D01*
X57815888Y-62186545D01*
X57913454Y-62284111D01*
X57913458Y-62284114D01*
X58028182Y-62360771D01*
X58028195Y-62360778D01*
X58155667Y-62413578D01*
X58155672Y-62413580D01*
X58155676Y-62413580D01*
X58155677Y-62413581D01*
X58291004Y-62440500D01*
X58291007Y-62440500D01*
X58428995Y-62440500D01*
X58520041Y-62422389D01*
X58564328Y-62413580D01*
X58691811Y-62360775D01*
X58806542Y-62284114D01*
X58904114Y-62186542D01*
X58980775Y-62071811D01*
X59033580Y-61944328D01*
X59060500Y-61808995D01*
X60784499Y-61808995D01*
X60811418Y-61944322D01*
X60811421Y-61944332D01*
X60864221Y-62071804D01*
X60864228Y-62071817D01*
X60940885Y-62186541D01*
X60940888Y-62186545D01*
X61038454Y-62284111D01*
X61038458Y-62284114D01*
X61153182Y-62360771D01*
X61153195Y-62360778D01*
X61280667Y-62413578D01*
X61280672Y-62413580D01*
X61280676Y-62413580D01*
X61280677Y-62413581D01*
X61416004Y-62440500D01*
X61416007Y-62440500D01*
X61553995Y-62440500D01*
X61645041Y-62422389D01*
X61689328Y-62413580D01*
X61816811Y-62360775D01*
X61931542Y-62284114D01*
X62029114Y-62186542D01*
X62105775Y-62071811D01*
X62158580Y-61944328D01*
X62185500Y-61808995D01*
X63909499Y-61808995D01*
X63936418Y-61944322D01*
X63936421Y-61944332D01*
X63989221Y-62071804D01*
X63989228Y-62071817D01*
X64065885Y-62186541D01*
X64065888Y-62186545D01*
X64163454Y-62284111D01*
X64163458Y-62284114D01*
X64278182Y-62360771D01*
X64278195Y-62360778D01*
X64405667Y-62413578D01*
X64405672Y-62413580D01*
X64405676Y-62413580D01*
X64405677Y-62413581D01*
X64541004Y-62440500D01*
X64541007Y-62440500D01*
X64678995Y-62440500D01*
X64770041Y-62422389D01*
X64814328Y-62413580D01*
X64941811Y-62360775D01*
X65056542Y-62284114D01*
X65154114Y-62186542D01*
X65230775Y-62071811D01*
X65283580Y-61944328D01*
X65310500Y-61808993D01*
X65310500Y-61671007D01*
X65310500Y-61671004D01*
X65283581Y-61535677D01*
X65283580Y-61535676D01*
X65283580Y-61535672D01*
X65283578Y-61535667D01*
X65230778Y-61408195D01*
X65230771Y-61408182D01*
X65154114Y-61293458D01*
X65154111Y-61293454D01*
X65056545Y-61195888D01*
X65056541Y-61195885D01*
X64941817Y-61119228D01*
X64941804Y-61119221D01*
X64814332Y-61066421D01*
X64814322Y-61066418D01*
X64678995Y-61039500D01*
X64678993Y-61039500D01*
X64541007Y-61039500D01*
X64541005Y-61039500D01*
X64405677Y-61066418D01*
X64405667Y-61066421D01*
X64278195Y-61119221D01*
X64278182Y-61119228D01*
X64163458Y-61195885D01*
X64163454Y-61195888D01*
X64065888Y-61293454D01*
X64065885Y-61293458D01*
X63989228Y-61408182D01*
X63989221Y-61408195D01*
X63936421Y-61535667D01*
X63936418Y-61535677D01*
X63909500Y-61671004D01*
X63909500Y-61671007D01*
X63909500Y-61808993D01*
X63909500Y-61808995D01*
X63909499Y-61808995D01*
X62185500Y-61808995D01*
X62185500Y-61808993D01*
X62185500Y-61671007D01*
X62185500Y-61671004D01*
X62158581Y-61535677D01*
X62158580Y-61535676D01*
X62158580Y-61535672D01*
X62158578Y-61535667D01*
X62105778Y-61408195D01*
X62105771Y-61408182D01*
X62029114Y-61293458D01*
X62029111Y-61293454D01*
X61931545Y-61195888D01*
X61931541Y-61195885D01*
X61816817Y-61119228D01*
X61816804Y-61119221D01*
X61689332Y-61066421D01*
X61689322Y-61066418D01*
X61553995Y-61039500D01*
X61553993Y-61039500D01*
X61416007Y-61039500D01*
X61416005Y-61039500D01*
X61280677Y-61066418D01*
X61280667Y-61066421D01*
X61153195Y-61119221D01*
X61153182Y-61119228D01*
X61038458Y-61195885D01*
X61038454Y-61195888D01*
X60940888Y-61293454D01*
X60940885Y-61293458D01*
X60864228Y-61408182D01*
X60864221Y-61408195D01*
X60811421Y-61535667D01*
X60811418Y-61535677D01*
X60784500Y-61671004D01*
X60784500Y-61671007D01*
X60784500Y-61808993D01*
X60784500Y-61808995D01*
X60784499Y-61808995D01*
X59060500Y-61808995D01*
X59060500Y-61808993D01*
X59060500Y-61671007D01*
X59060500Y-61671004D01*
X59033581Y-61535677D01*
X59033580Y-61535676D01*
X59033580Y-61535672D01*
X59033578Y-61535667D01*
X58980778Y-61408195D01*
X58980771Y-61408182D01*
X58904114Y-61293458D01*
X58904111Y-61293454D01*
X58806545Y-61195888D01*
X58806541Y-61195885D01*
X58691817Y-61119228D01*
X58691804Y-61119221D01*
X58564332Y-61066421D01*
X58564322Y-61066418D01*
X58428995Y-61039500D01*
X58428993Y-61039500D01*
X58291007Y-61039500D01*
X58291005Y-61039500D01*
X58155677Y-61066418D01*
X58155667Y-61066421D01*
X58028195Y-61119221D01*
X58028182Y-61119228D01*
X57913458Y-61195885D01*
X57913454Y-61195888D01*
X57815888Y-61293454D01*
X57815885Y-61293458D01*
X57739228Y-61408182D01*
X57739221Y-61408195D01*
X57686421Y-61535667D01*
X57686418Y-61535677D01*
X57659500Y-61671004D01*
X57659500Y-61671007D01*
X57659500Y-61808993D01*
X57659500Y-61808995D01*
X57659499Y-61808995D01*
X55935500Y-61808995D01*
X55935500Y-61808993D01*
X55935500Y-61671007D01*
X55935500Y-61671004D01*
X55908581Y-61535677D01*
X55908580Y-61535676D01*
X55908580Y-61535672D01*
X55908578Y-61535667D01*
X55855778Y-61408195D01*
X55855771Y-61408182D01*
X55779114Y-61293458D01*
X55779111Y-61293454D01*
X55681545Y-61195888D01*
X55681541Y-61195885D01*
X55566817Y-61119228D01*
X55566804Y-61119221D01*
X55439332Y-61066421D01*
X55439322Y-61066418D01*
X55303995Y-61039500D01*
X55303993Y-61039500D01*
X55166007Y-61039500D01*
X55166005Y-61039500D01*
X55030677Y-61066418D01*
X55030667Y-61066421D01*
X54903195Y-61119221D01*
X54903182Y-61119228D01*
X54788458Y-61195885D01*
X54788454Y-61195888D01*
X54690888Y-61293454D01*
X54690885Y-61293458D01*
X54614228Y-61408182D01*
X54614221Y-61408195D01*
X54561421Y-61535667D01*
X54561418Y-61535677D01*
X54534500Y-61671004D01*
X54534500Y-61671007D01*
X54534500Y-61808993D01*
X54534500Y-61808995D01*
X54534499Y-61808995D01*
X52810500Y-61808995D01*
X52810500Y-61808993D01*
X52810500Y-61671007D01*
X52810500Y-61671004D01*
X52783581Y-61535677D01*
X52783580Y-61535676D01*
X52783580Y-61535672D01*
X52783578Y-61535667D01*
X52730778Y-61408195D01*
X52730771Y-61408182D01*
X52654114Y-61293458D01*
X52654111Y-61293454D01*
X52556545Y-61195888D01*
X52556541Y-61195885D01*
X52441817Y-61119228D01*
X52441804Y-61119221D01*
X52314332Y-61066421D01*
X52314322Y-61066418D01*
X52178995Y-61039500D01*
X52178993Y-61039500D01*
X52041007Y-61039500D01*
X52041005Y-61039500D01*
X51905677Y-61066418D01*
X51905667Y-61066421D01*
X51778195Y-61119221D01*
X51778182Y-61119228D01*
X51663458Y-61195885D01*
X51663454Y-61195888D01*
X51565888Y-61293454D01*
X51565885Y-61293458D01*
X51489228Y-61408182D01*
X51489221Y-61408195D01*
X51436421Y-61535667D01*
X51436418Y-61535677D01*
X51409500Y-61671004D01*
X51409500Y-61671007D01*
X51409500Y-61808993D01*
X51409500Y-61808995D01*
X51409499Y-61808995D01*
X49240500Y-61808995D01*
X49240500Y-58558995D01*
X51409499Y-58558995D01*
X51436418Y-58694322D01*
X51436421Y-58694332D01*
X51489221Y-58821804D01*
X51489228Y-58821817D01*
X51565885Y-58936541D01*
X51565888Y-58936545D01*
X51663454Y-59034111D01*
X51663458Y-59034114D01*
X51778182Y-59110771D01*
X51778195Y-59110778D01*
X51905667Y-59163578D01*
X51905672Y-59163580D01*
X51905676Y-59163580D01*
X51905677Y-59163581D01*
X52041004Y-59190500D01*
X52041007Y-59190500D01*
X52178995Y-59190500D01*
X52287628Y-59168891D01*
X52314328Y-59163580D01*
X52441811Y-59110775D01*
X52556542Y-59034114D01*
X52654114Y-58936542D01*
X52730775Y-58821811D01*
X52783580Y-58694328D01*
X52810500Y-58558995D01*
X54534499Y-58558995D01*
X54561418Y-58694322D01*
X54561421Y-58694332D01*
X54614221Y-58821804D01*
X54614228Y-58821817D01*
X54690885Y-58936541D01*
X54690888Y-58936545D01*
X54788454Y-59034111D01*
X54788458Y-59034114D01*
X54903182Y-59110771D01*
X54903195Y-59110778D01*
X55030667Y-59163578D01*
X55030672Y-59163580D01*
X55030676Y-59163580D01*
X55030677Y-59163581D01*
X55166004Y-59190500D01*
X55166007Y-59190500D01*
X55303995Y-59190500D01*
X55412628Y-59168891D01*
X55439328Y-59163580D01*
X55566811Y-59110775D01*
X55681542Y-59034114D01*
X55779114Y-58936542D01*
X55855775Y-58821811D01*
X55908580Y-58694328D01*
X55935500Y-58558995D01*
X57659499Y-58558995D01*
X57686418Y-58694322D01*
X57686421Y-58694332D01*
X57739221Y-58821804D01*
X57739228Y-58821817D01*
X57815885Y-58936541D01*
X57815888Y-58936545D01*
X57913454Y-59034111D01*
X57913458Y-59034114D01*
X58028182Y-59110771D01*
X58028195Y-59110778D01*
X58155667Y-59163578D01*
X58155672Y-59163580D01*
X58155676Y-59163580D01*
X58155677Y-59163581D01*
X58291004Y-59190500D01*
X58291007Y-59190500D01*
X58428995Y-59190500D01*
X58537628Y-59168891D01*
X58564328Y-59163580D01*
X58691811Y-59110775D01*
X58806542Y-59034114D01*
X58904114Y-58936542D01*
X58980775Y-58821811D01*
X59033580Y-58694328D01*
X59060500Y-58558995D01*
X60784499Y-58558995D01*
X60811418Y-58694322D01*
X60811421Y-58694332D01*
X60864221Y-58821804D01*
X60864228Y-58821817D01*
X60940885Y-58936541D01*
X60940888Y-58936545D01*
X61038454Y-59034111D01*
X61038458Y-59034114D01*
X61153182Y-59110771D01*
X61153195Y-59110778D01*
X61280667Y-59163578D01*
X61280672Y-59163580D01*
X61280676Y-59163580D01*
X61280677Y-59163581D01*
X61416004Y-59190500D01*
X61416007Y-59190500D01*
X61553995Y-59190500D01*
X61662628Y-59168891D01*
X61689328Y-59163580D01*
X61816811Y-59110775D01*
X61931542Y-59034114D01*
X62029114Y-58936542D01*
X62105775Y-58821811D01*
X62158580Y-58694328D01*
X62185500Y-58558995D01*
X63909499Y-58558995D01*
X63936418Y-58694322D01*
X63936421Y-58694332D01*
X63989221Y-58821804D01*
X63989228Y-58821817D01*
X64065885Y-58936541D01*
X64065888Y-58936545D01*
X64163454Y-59034111D01*
X64163458Y-59034114D01*
X64278182Y-59110771D01*
X64278195Y-59110778D01*
X64405667Y-59163578D01*
X64405672Y-59163580D01*
X64405676Y-59163580D01*
X64405677Y-59163581D01*
X64541004Y-59190500D01*
X64541007Y-59190500D01*
X64678995Y-59190500D01*
X64787628Y-59168891D01*
X64814328Y-59163580D01*
X64941811Y-59110775D01*
X65056542Y-59034114D01*
X65154114Y-58936542D01*
X65230775Y-58821811D01*
X65283580Y-58694328D01*
X65310500Y-58558993D01*
X65310500Y-58521153D01*
X68899500Y-58521153D01*
X68899500Y-58678846D01*
X68930261Y-58833489D01*
X68930264Y-58833501D01*
X68990602Y-58979172D01*
X68990609Y-58979185D01*
X69025304Y-59031109D01*
X69046182Y-59097786D01*
X69027698Y-59165167D01*
X69025304Y-59168891D01*
X68990609Y-59220814D01*
X68990602Y-59220827D01*
X68930264Y-59366498D01*
X68930261Y-59366510D01*
X68899500Y-59521153D01*
X68899500Y-59678846D01*
X68930261Y-59833489D01*
X68930264Y-59833501D01*
X68990602Y-59979172D01*
X68990609Y-59979185D01*
X69078210Y-60110288D01*
X69078213Y-60110292D01*
X69189707Y-60221786D01*
X69189711Y-60221789D01*
X69320814Y-60309390D01*
X69320827Y-60309397D01*
X69466498Y-60369735D01*
X69466503Y-60369737D01*
X69621153Y-60400499D01*
X69621156Y-60400500D01*
X69621158Y-60400500D01*
X69778844Y-60400500D01*
X69778845Y-60400499D01*
X69933497Y-60369737D01*
X70079179Y-60309394D01*
X70210289Y-60221789D01*
X70321789Y-60110289D01*
X70409394Y-59979179D01*
X70469737Y-59833497D01*
X70500500Y-59678842D01*
X70500500Y-59521158D01*
X70500500Y-59521155D01*
X70500499Y-59521153D01*
X70469738Y-59366510D01*
X70469737Y-59366503D01*
X70469735Y-59366498D01*
X70409396Y-59220825D01*
X70409394Y-59220822D01*
X70409394Y-59220821D01*
X70374694Y-59168889D01*
X70353816Y-59102215D01*
X70372300Y-59034835D01*
X70374676Y-59031136D01*
X70409394Y-58979179D01*
X70469737Y-58833497D01*
X70500500Y-58678842D01*
X70500500Y-58521158D01*
X70500500Y-58521155D01*
X70500499Y-58521153D01*
X70469737Y-58366503D01*
X70436254Y-58285667D01*
X70409397Y-58220827D01*
X70409390Y-58220814D01*
X70321789Y-58089711D01*
X70321786Y-58089707D01*
X70210292Y-57978213D01*
X70210288Y-57978210D01*
X70079185Y-57890609D01*
X70079172Y-57890602D01*
X69933501Y-57830264D01*
X69933489Y-57830261D01*
X69778845Y-57799500D01*
X69778842Y-57799500D01*
X69621158Y-57799500D01*
X69621155Y-57799500D01*
X69466510Y-57830261D01*
X69466498Y-57830264D01*
X69320827Y-57890602D01*
X69320814Y-57890609D01*
X69189711Y-57978210D01*
X69189707Y-57978213D01*
X69078213Y-58089707D01*
X69078210Y-58089711D01*
X68990609Y-58220814D01*
X68990602Y-58220827D01*
X68930264Y-58366498D01*
X68930261Y-58366510D01*
X68899500Y-58521153D01*
X65310500Y-58521153D01*
X65310500Y-58421007D01*
X65310500Y-58421004D01*
X65283581Y-58285677D01*
X65283580Y-58285676D01*
X65283580Y-58285672D01*
X65283578Y-58285667D01*
X65230778Y-58158195D01*
X65230771Y-58158182D01*
X65154114Y-58043458D01*
X65154111Y-58043454D01*
X65056545Y-57945888D01*
X65056541Y-57945885D01*
X64941817Y-57869228D01*
X64941804Y-57869221D01*
X64814332Y-57816421D01*
X64814322Y-57816418D01*
X64678995Y-57789500D01*
X64678993Y-57789500D01*
X64541007Y-57789500D01*
X64541005Y-57789500D01*
X64405677Y-57816418D01*
X64405667Y-57816421D01*
X64278195Y-57869221D01*
X64278182Y-57869228D01*
X64163458Y-57945885D01*
X64163454Y-57945888D01*
X64065888Y-58043454D01*
X64065885Y-58043458D01*
X63989228Y-58158182D01*
X63989221Y-58158195D01*
X63936421Y-58285667D01*
X63936418Y-58285677D01*
X63909500Y-58421004D01*
X63909500Y-58421007D01*
X63909500Y-58558993D01*
X63909500Y-58558995D01*
X63909499Y-58558995D01*
X62185500Y-58558995D01*
X62185500Y-58558993D01*
X62185500Y-58421007D01*
X62185500Y-58421004D01*
X62158581Y-58285677D01*
X62158580Y-58285676D01*
X62158580Y-58285672D01*
X62158578Y-58285667D01*
X62105778Y-58158195D01*
X62105771Y-58158182D01*
X62029114Y-58043458D01*
X62029111Y-58043454D01*
X61931545Y-57945888D01*
X61931541Y-57945885D01*
X61816817Y-57869228D01*
X61816804Y-57869221D01*
X61689332Y-57816421D01*
X61689322Y-57816418D01*
X61553995Y-57789500D01*
X61553993Y-57789500D01*
X61416007Y-57789500D01*
X61416005Y-57789500D01*
X61280677Y-57816418D01*
X61280667Y-57816421D01*
X61153195Y-57869221D01*
X61153182Y-57869228D01*
X61038458Y-57945885D01*
X61038454Y-57945888D01*
X60940888Y-58043454D01*
X60940885Y-58043458D01*
X60864228Y-58158182D01*
X60864221Y-58158195D01*
X60811421Y-58285667D01*
X60811418Y-58285677D01*
X60784500Y-58421004D01*
X60784500Y-58421007D01*
X60784500Y-58558993D01*
X60784500Y-58558995D01*
X60784499Y-58558995D01*
X59060500Y-58558995D01*
X59060500Y-58558993D01*
X59060500Y-58421007D01*
X59060500Y-58421004D01*
X59033581Y-58285677D01*
X59033580Y-58285676D01*
X59033580Y-58285672D01*
X59033578Y-58285667D01*
X58980778Y-58158195D01*
X58980771Y-58158182D01*
X58904114Y-58043458D01*
X58904111Y-58043454D01*
X58806545Y-57945888D01*
X58806541Y-57945885D01*
X58691817Y-57869228D01*
X58691804Y-57869221D01*
X58564332Y-57816421D01*
X58564322Y-57816418D01*
X58428995Y-57789500D01*
X58428993Y-57789500D01*
X58291007Y-57789500D01*
X58291005Y-57789500D01*
X58155677Y-57816418D01*
X58155667Y-57816421D01*
X58028195Y-57869221D01*
X58028182Y-57869228D01*
X57913458Y-57945885D01*
X57913454Y-57945888D01*
X57815888Y-58043454D01*
X57815885Y-58043458D01*
X57739228Y-58158182D01*
X57739221Y-58158195D01*
X57686421Y-58285667D01*
X57686418Y-58285677D01*
X57659500Y-58421004D01*
X57659500Y-58421007D01*
X57659500Y-58558993D01*
X57659500Y-58558995D01*
X57659499Y-58558995D01*
X55935500Y-58558995D01*
X55935500Y-58558993D01*
X55935500Y-58421007D01*
X55935500Y-58421004D01*
X55908581Y-58285677D01*
X55908580Y-58285676D01*
X55908580Y-58285672D01*
X55908578Y-58285667D01*
X55855778Y-58158195D01*
X55855771Y-58158182D01*
X55779114Y-58043458D01*
X55779111Y-58043454D01*
X55681545Y-57945888D01*
X55681541Y-57945885D01*
X55566817Y-57869228D01*
X55566804Y-57869221D01*
X55439332Y-57816421D01*
X55439322Y-57816418D01*
X55303995Y-57789500D01*
X55303993Y-57789500D01*
X55166007Y-57789500D01*
X55166005Y-57789500D01*
X55030677Y-57816418D01*
X55030667Y-57816421D01*
X54903195Y-57869221D01*
X54903182Y-57869228D01*
X54788458Y-57945885D01*
X54788454Y-57945888D01*
X54690888Y-58043454D01*
X54690885Y-58043458D01*
X54614228Y-58158182D01*
X54614221Y-58158195D01*
X54561421Y-58285667D01*
X54561418Y-58285677D01*
X54534500Y-58421004D01*
X54534500Y-58421007D01*
X54534500Y-58558993D01*
X54534500Y-58558995D01*
X54534499Y-58558995D01*
X52810500Y-58558995D01*
X52810500Y-58558993D01*
X52810500Y-58421007D01*
X52810500Y-58421004D01*
X52783581Y-58285677D01*
X52783580Y-58285676D01*
X52783580Y-58285672D01*
X52783578Y-58285667D01*
X52730778Y-58158195D01*
X52730771Y-58158182D01*
X52654114Y-58043458D01*
X52654111Y-58043454D01*
X52556545Y-57945888D01*
X52556541Y-57945885D01*
X52441817Y-57869228D01*
X52441804Y-57869221D01*
X52314332Y-57816421D01*
X52314322Y-57816418D01*
X52178995Y-57789500D01*
X52178993Y-57789500D01*
X52041007Y-57789500D01*
X52041005Y-57789500D01*
X51905677Y-57816418D01*
X51905667Y-57816421D01*
X51778195Y-57869221D01*
X51778182Y-57869228D01*
X51663458Y-57945885D01*
X51663454Y-57945888D01*
X51565888Y-58043454D01*
X51565885Y-58043458D01*
X51489228Y-58158182D01*
X51489221Y-58158195D01*
X51436421Y-58285667D01*
X51436418Y-58285677D01*
X51409500Y-58421004D01*
X51409500Y-58421007D01*
X51409500Y-58558993D01*
X51409500Y-58558995D01*
X51409499Y-58558995D01*
X49240500Y-58558995D01*
X49240500Y-55308995D01*
X51409499Y-55308995D01*
X51436418Y-55444322D01*
X51436421Y-55444332D01*
X51489221Y-55571804D01*
X51489228Y-55571817D01*
X51565885Y-55686541D01*
X51565888Y-55686545D01*
X51663454Y-55784111D01*
X51663458Y-55784114D01*
X51778182Y-55860771D01*
X51778195Y-55860778D01*
X51905667Y-55913578D01*
X51905672Y-55913580D01*
X51905676Y-55913580D01*
X51905677Y-55913581D01*
X52041004Y-55940500D01*
X52041007Y-55940500D01*
X52178995Y-55940500D01*
X52278141Y-55920778D01*
X52314328Y-55913580D01*
X52441811Y-55860775D01*
X52556542Y-55784114D01*
X52654114Y-55686542D01*
X52730775Y-55571811D01*
X52783580Y-55444328D01*
X52810500Y-55308995D01*
X54534499Y-55308995D01*
X54561418Y-55444322D01*
X54561421Y-55444332D01*
X54614221Y-55571804D01*
X54614228Y-55571817D01*
X54690885Y-55686541D01*
X54690888Y-55686545D01*
X54788454Y-55784111D01*
X54788458Y-55784114D01*
X54903182Y-55860771D01*
X54903195Y-55860778D01*
X55030667Y-55913578D01*
X55030672Y-55913580D01*
X55030676Y-55913580D01*
X55030677Y-55913581D01*
X55166004Y-55940500D01*
X55166007Y-55940500D01*
X55303995Y-55940500D01*
X55403141Y-55920778D01*
X55439328Y-55913580D01*
X55566811Y-55860775D01*
X55681542Y-55784114D01*
X55779114Y-55686542D01*
X55855775Y-55571811D01*
X55908580Y-55444328D01*
X55923565Y-55368995D01*
X57699499Y-55368995D01*
X57726418Y-55504322D01*
X57726421Y-55504332D01*
X57779221Y-55631804D01*
X57779228Y-55631817D01*
X57855885Y-55746541D01*
X57855888Y-55746545D01*
X57953454Y-55844111D01*
X57953458Y-55844114D01*
X58068182Y-55920771D01*
X58068195Y-55920778D01*
X58195667Y-55973578D01*
X58195672Y-55973580D01*
X58195676Y-55973580D01*
X58195677Y-55973581D01*
X58331004Y-56000500D01*
X58331007Y-56000500D01*
X58468995Y-56000500D01*
X58560041Y-55982389D01*
X58604328Y-55973580D01*
X58731811Y-55920775D01*
X58846542Y-55844114D01*
X58944114Y-55746542D01*
X59020775Y-55631811D01*
X59073580Y-55504328D01*
X59100500Y-55368993D01*
X59100500Y-55308995D01*
X60784499Y-55308995D01*
X60811418Y-55444322D01*
X60811421Y-55444332D01*
X60864221Y-55571804D01*
X60864228Y-55571817D01*
X60940885Y-55686541D01*
X60940888Y-55686545D01*
X61038454Y-55784111D01*
X61038458Y-55784114D01*
X61153182Y-55860771D01*
X61153195Y-55860778D01*
X61280667Y-55913578D01*
X61280672Y-55913580D01*
X61280676Y-55913580D01*
X61280677Y-55913581D01*
X61416004Y-55940500D01*
X61416007Y-55940500D01*
X61553995Y-55940500D01*
X61653141Y-55920778D01*
X61689328Y-55913580D01*
X61816811Y-55860775D01*
X61931542Y-55784114D01*
X62029114Y-55686542D01*
X62105775Y-55571811D01*
X62158580Y-55444328D01*
X62185500Y-55308995D01*
X63909499Y-55308995D01*
X63936418Y-55444322D01*
X63936421Y-55444332D01*
X63989221Y-55571804D01*
X63989228Y-55571817D01*
X64065885Y-55686541D01*
X64065888Y-55686545D01*
X64163454Y-55784111D01*
X64163458Y-55784114D01*
X64278182Y-55860771D01*
X64278195Y-55860778D01*
X64405667Y-55913578D01*
X64405672Y-55913580D01*
X64405676Y-55913580D01*
X64405677Y-55913581D01*
X64541004Y-55940500D01*
X64541007Y-55940500D01*
X64678995Y-55940500D01*
X64778141Y-55920778D01*
X64814328Y-55913580D01*
X64941811Y-55860775D01*
X65056542Y-55784114D01*
X65154114Y-55686542D01*
X65230775Y-55571811D01*
X65283580Y-55444328D01*
X65310500Y-55308993D01*
X65310500Y-55171007D01*
X65310500Y-55171004D01*
X65283581Y-55035677D01*
X65283580Y-55035676D01*
X65283580Y-55035672D01*
X65283578Y-55035667D01*
X65230778Y-54908195D01*
X65230771Y-54908182D01*
X65154114Y-54793458D01*
X65154111Y-54793454D01*
X65056545Y-54695888D01*
X65056541Y-54695885D01*
X64941817Y-54619228D01*
X64941804Y-54619221D01*
X64814332Y-54566421D01*
X64814322Y-54566418D01*
X64678995Y-54539500D01*
X64678993Y-54539500D01*
X64541007Y-54539500D01*
X64541005Y-54539500D01*
X64405677Y-54566418D01*
X64405667Y-54566421D01*
X64278195Y-54619221D01*
X64278182Y-54619228D01*
X64163458Y-54695885D01*
X64163454Y-54695888D01*
X64065888Y-54793454D01*
X64065885Y-54793458D01*
X63989228Y-54908182D01*
X63989221Y-54908195D01*
X63936421Y-55035667D01*
X63936418Y-55035677D01*
X63909500Y-55171004D01*
X63909500Y-55171007D01*
X63909500Y-55308993D01*
X63909500Y-55308995D01*
X63909499Y-55308995D01*
X62185500Y-55308995D01*
X62185500Y-55308993D01*
X62185500Y-55171007D01*
X62185500Y-55171004D01*
X62158581Y-55035677D01*
X62158580Y-55035676D01*
X62158580Y-55035672D01*
X62158578Y-55035667D01*
X62105778Y-54908195D01*
X62105771Y-54908182D01*
X62029114Y-54793458D01*
X62029111Y-54793454D01*
X61931545Y-54695888D01*
X61931541Y-54695885D01*
X61816817Y-54619228D01*
X61816804Y-54619221D01*
X61689332Y-54566421D01*
X61689322Y-54566418D01*
X61553995Y-54539500D01*
X61553993Y-54539500D01*
X61416007Y-54539500D01*
X61416005Y-54539500D01*
X61280677Y-54566418D01*
X61280667Y-54566421D01*
X61153195Y-54619221D01*
X61153182Y-54619228D01*
X61038458Y-54695885D01*
X61038454Y-54695888D01*
X60940888Y-54793454D01*
X60940885Y-54793458D01*
X60864228Y-54908182D01*
X60864221Y-54908195D01*
X60811421Y-55035667D01*
X60811418Y-55035677D01*
X60784500Y-55171004D01*
X60784500Y-55171007D01*
X60784500Y-55308993D01*
X60784500Y-55308995D01*
X60784499Y-55308995D01*
X59100500Y-55308995D01*
X59100500Y-55231007D01*
X59100500Y-55231004D01*
X59100499Y-55231002D01*
X59092166Y-55189106D01*
X59073581Y-55095677D01*
X59073580Y-55095676D01*
X59073580Y-55095672D01*
X59073578Y-55095667D01*
X59020778Y-54968195D01*
X59020771Y-54968182D01*
X58944114Y-54853458D01*
X58944111Y-54853454D01*
X58846545Y-54755888D01*
X58846541Y-54755885D01*
X58731817Y-54679228D01*
X58731804Y-54679221D01*
X58604332Y-54626421D01*
X58604322Y-54626418D01*
X58468995Y-54599500D01*
X58468993Y-54599500D01*
X58331007Y-54599500D01*
X58331005Y-54599500D01*
X58195677Y-54626418D01*
X58195667Y-54626421D01*
X58068195Y-54679221D01*
X58068182Y-54679228D01*
X57953458Y-54755885D01*
X57953454Y-54755888D01*
X57855888Y-54853454D01*
X57855885Y-54853458D01*
X57779228Y-54968182D01*
X57779221Y-54968195D01*
X57726421Y-55095667D01*
X57726418Y-55095677D01*
X57699500Y-55231004D01*
X57699500Y-55231007D01*
X57699500Y-55368993D01*
X57699500Y-55368995D01*
X57699499Y-55368995D01*
X55923565Y-55368995D01*
X55935500Y-55308993D01*
X55935500Y-55171007D01*
X55935500Y-55171004D01*
X55908581Y-55035677D01*
X55908580Y-55035676D01*
X55908580Y-55035672D01*
X55908578Y-55035667D01*
X55855778Y-54908195D01*
X55855771Y-54908182D01*
X55779114Y-54793458D01*
X55779111Y-54793454D01*
X55681545Y-54695888D01*
X55681541Y-54695885D01*
X55566817Y-54619228D01*
X55566804Y-54619221D01*
X55439332Y-54566421D01*
X55439322Y-54566418D01*
X55303995Y-54539500D01*
X55303993Y-54539500D01*
X55166007Y-54539500D01*
X55166005Y-54539500D01*
X55030677Y-54566418D01*
X55030667Y-54566421D01*
X54903195Y-54619221D01*
X54903182Y-54619228D01*
X54788458Y-54695885D01*
X54788454Y-54695888D01*
X54690888Y-54793454D01*
X54690885Y-54793458D01*
X54614228Y-54908182D01*
X54614221Y-54908195D01*
X54561421Y-55035667D01*
X54561418Y-55035677D01*
X54534500Y-55171004D01*
X54534500Y-55171007D01*
X54534500Y-55308993D01*
X54534500Y-55308995D01*
X54534499Y-55308995D01*
X52810500Y-55308995D01*
X52810500Y-55308993D01*
X52810500Y-55171007D01*
X52810500Y-55171004D01*
X52783581Y-55035677D01*
X52783580Y-55035676D01*
X52783580Y-55035672D01*
X52783578Y-55035667D01*
X52730778Y-54908195D01*
X52730771Y-54908182D01*
X52654114Y-54793458D01*
X52654111Y-54793454D01*
X52556545Y-54695888D01*
X52556541Y-54695885D01*
X52441817Y-54619228D01*
X52441804Y-54619221D01*
X52314332Y-54566421D01*
X52314322Y-54566418D01*
X52178995Y-54539500D01*
X52178993Y-54539500D01*
X52041007Y-54539500D01*
X52041005Y-54539500D01*
X51905677Y-54566418D01*
X51905667Y-54566421D01*
X51778195Y-54619221D01*
X51778182Y-54619228D01*
X51663458Y-54695885D01*
X51663454Y-54695888D01*
X51565888Y-54793454D01*
X51565885Y-54793458D01*
X51489228Y-54908182D01*
X51489221Y-54908195D01*
X51436421Y-55035667D01*
X51436418Y-55035677D01*
X51409500Y-55171004D01*
X51409500Y-55171007D01*
X51409500Y-55308993D01*
X51409500Y-55308995D01*
X51409499Y-55308995D01*
X49240500Y-55308995D01*
X49240500Y-52058995D01*
X51409499Y-52058995D01*
X51436418Y-52194322D01*
X51436421Y-52194332D01*
X51489221Y-52321804D01*
X51489228Y-52321817D01*
X51565885Y-52436541D01*
X51565888Y-52436545D01*
X51663454Y-52534111D01*
X51663458Y-52534114D01*
X51778182Y-52610771D01*
X51778195Y-52610778D01*
X51905667Y-52663578D01*
X51905672Y-52663580D01*
X51905676Y-52663580D01*
X51905677Y-52663581D01*
X52041004Y-52690500D01*
X52041007Y-52690500D01*
X52178995Y-52690500D01*
X52270041Y-52672389D01*
X52314328Y-52663580D01*
X52441811Y-52610775D01*
X52556542Y-52534114D01*
X52654114Y-52436542D01*
X52730775Y-52321811D01*
X52783580Y-52194328D01*
X52810500Y-52058995D01*
X54534499Y-52058995D01*
X54561418Y-52194322D01*
X54561421Y-52194332D01*
X54614221Y-52321804D01*
X54614228Y-52321817D01*
X54690885Y-52436541D01*
X54690888Y-52436545D01*
X54788454Y-52534111D01*
X54788458Y-52534114D01*
X54903182Y-52610771D01*
X54903195Y-52610778D01*
X55030667Y-52663578D01*
X55030672Y-52663580D01*
X55030676Y-52663580D01*
X55030677Y-52663581D01*
X55166004Y-52690500D01*
X55166007Y-52690500D01*
X55303995Y-52690500D01*
X55395041Y-52672389D01*
X55439328Y-52663580D01*
X55566811Y-52610775D01*
X55681542Y-52534114D01*
X55779114Y-52436542D01*
X55855775Y-52321811D01*
X55908580Y-52194328D01*
X55935500Y-52058995D01*
X57659499Y-52058995D01*
X57686418Y-52194322D01*
X57686421Y-52194332D01*
X57739221Y-52321804D01*
X57739228Y-52321817D01*
X57815885Y-52436541D01*
X57815888Y-52436545D01*
X57913454Y-52534111D01*
X57913458Y-52534114D01*
X58028182Y-52610771D01*
X58028195Y-52610778D01*
X58155667Y-52663578D01*
X58155672Y-52663580D01*
X58155676Y-52663580D01*
X58155677Y-52663581D01*
X58291004Y-52690500D01*
X58291007Y-52690500D01*
X58428995Y-52690500D01*
X58520041Y-52672389D01*
X58564328Y-52663580D01*
X58691811Y-52610775D01*
X58806542Y-52534114D01*
X58904114Y-52436542D01*
X58980775Y-52321811D01*
X59033580Y-52194328D01*
X59060500Y-52058995D01*
X60784499Y-52058995D01*
X60811418Y-52194322D01*
X60811421Y-52194332D01*
X60864221Y-52321804D01*
X60864228Y-52321817D01*
X60940885Y-52436541D01*
X60940888Y-52436545D01*
X61038454Y-52534111D01*
X61038458Y-52534114D01*
X61153182Y-52610771D01*
X61153195Y-52610778D01*
X61280667Y-52663578D01*
X61280672Y-52663580D01*
X61280676Y-52663580D01*
X61280677Y-52663581D01*
X61416004Y-52690500D01*
X61416007Y-52690500D01*
X61553995Y-52690500D01*
X61645041Y-52672389D01*
X61689328Y-52663580D01*
X61816811Y-52610775D01*
X61931542Y-52534114D01*
X62029114Y-52436542D01*
X62105775Y-52321811D01*
X62158580Y-52194328D01*
X62185500Y-52058995D01*
X63909499Y-52058995D01*
X63936418Y-52194322D01*
X63936421Y-52194332D01*
X63989221Y-52321804D01*
X63989228Y-52321817D01*
X64065885Y-52436541D01*
X64065888Y-52436545D01*
X64163454Y-52534111D01*
X64163458Y-52534114D01*
X64278182Y-52610771D01*
X64278195Y-52610778D01*
X64405667Y-52663578D01*
X64405672Y-52663580D01*
X64405676Y-52663580D01*
X64405677Y-52663581D01*
X64541004Y-52690500D01*
X64541007Y-52690500D01*
X64678995Y-52690500D01*
X64770041Y-52672389D01*
X64814328Y-52663580D01*
X64941811Y-52610775D01*
X65056542Y-52534114D01*
X65154114Y-52436542D01*
X65230775Y-52321811D01*
X65283580Y-52194328D01*
X65310500Y-52058993D01*
X65310500Y-51921007D01*
X65310500Y-51921004D01*
X65283581Y-51785677D01*
X65283580Y-51785676D01*
X65283580Y-51785672D01*
X65283578Y-51785667D01*
X65230778Y-51658195D01*
X65230771Y-51658182D01*
X65154114Y-51543458D01*
X65154111Y-51543454D01*
X65056545Y-51445888D01*
X65056541Y-51445885D01*
X64941817Y-51369228D01*
X64941804Y-51369221D01*
X64814332Y-51316421D01*
X64814322Y-51316418D01*
X64678995Y-51289500D01*
X64678993Y-51289500D01*
X64541007Y-51289500D01*
X64541005Y-51289500D01*
X64405677Y-51316418D01*
X64405667Y-51316421D01*
X64278195Y-51369221D01*
X64278182Y-51369228D01*
X64163458Y-51445885D01*
X64163454Y-51445888D01*
X64065888Y-51543454D01*
X64065885Y-51543458D01*
X63989228Y-51658182D01*
X63989221Y-51658195D01*
X63936421Y-51785667D01*
X63936418Y-51785677D01*
X63909500Y-51921004D01*
X63909500Y-51921007D01*
X63909500Y-52058993D01*
X63909500Y-52058995D01*
X63909499Y-52058995D01*
X62185500Y-52058995D01*
X62185500Y-52058993D01*
X62185500Y-51921007D01*
X62185500Y-51921004D01*
X62158581Y-51785677D01*
X62158580Y-51785676D01*
X62158580Y-51785672D01*
X62158578Y-51785667D01*
X62105778Y-51658195D01*
X62105771Y-51658182D01*
X62029114Y-51543458D01*
X62029111Y-51543454D01*
X61931545Y-51445888D01*
X61931541Y-51445885D01*
X61816817Y-51369228D01*
X61816804Y-51369221D01*
X61689332Y-51316421D01*
X61689322Y-51316418D01*
X61553995Y-51289500D01*
X61553993Y-51289500D01*
X61416007Y-51289500D01*
X61416005Y-51289500D01*
X61280677Y-51316418D01*
X61280667Y-51316421D01*
X61153195Y-51369221D01*
X61153182Y-51369228D01*
X61038458Y-51445885D01*
X61038454Y-51445888D01*
X60940888Y-51543454D01*
X60940885Y-51543458D01*
X60864228Y-51658182D01*
X60864221Y-51658195D01*
X60811421Y-51785667D01*
X60811418Y-51785677D01*
X60784500Y-51921004D01*
X60784500Y-51921007D01*
X60784500Y-52058993D01*
X60784500Y-52058995D01*
X60784499Y-52058995D01*
X59060500Y-52058995D01*
X59060500Y-52058993D01*
X59060500Y-51921007D01*
X59060500Y-51921004D01*
X59033581Y-51785677D01*
X59033580Y-51785676D01*
X59033580Y-51785672D01*
X59033578Y-51785667D01*
X58980778Y-51658195D01*
X58980771Y-51658182D01*
X58904114Y-51543458D01*
X58904111Y-51543454D01*
X58806545Y-51445888D01*
X58806541Y-51445885D01*
X58691817Y-51369228D01*
X58691804Y-51369221D01*
X58564332Y-51316421D01*
X58564322Y-51316418D01*
X58428995Y-51289500D01*
X58428993Y-51289500D01*
X58291007Y-51289500D01*
X58291005Y-51289500D01*
X58155677Y-51316418D01*
X58155667Y-51316421D01*
X58028195Y-51369221D01*
X58028182Y-51369228D01*
X57913458Y-51445885D01*
X57913454Y-51445888D01*
X57815888Y-51543454D01*
X57815885Y-51543458D01*
X57739228Y-51658182D01*
X57739221Y-51658195D01*
X57686421Y-51785667D01*
X57686418Y-51785677D01*
X57659500Y-51921004D01*
X57659500Y-51921007D01*
X57659500Y-52058993D01*
X57659500Y-52058995D01*
X57659499Y-52058995D01*
X55935500Y-52058995D01*
X55935500Y-52058993D01*
X55935500Y-51921007D01*
X55935500Y-51921004D01*
X55908581Y-51785677D01*
X55908580Y-51785676D01*
X55908580Y-51785672D01*
X55908578Y-51785667D01*
X55855778Y-51658195D01*
X55855771Y-51658182D01*
X55779114Y-51543458D01*
X55779111Y-51543454D01*
X55681545Y-51445888D01*
X55681541Y-51445885D01*
X55566817Y-51369228D01*
X55566804Y-51369221D01*
X55439332Y-51316421D01*
X55439322Y-51316418D01*
X55303995Y-51289500D01*
X55303993Y-51289500D01*
X55166007Y-51289500D01*
X55166005Y-51289500D01*
X55030677Y-51316418D01*
X55030667Y-51316421D01*
X54903195Y-51369221D01*
X54903182Y-51369228D01*
X54788458Y-51445885D01*
X54788454Y-51445888D01*
X54690888Y-51543454D01*
X54690885Y-51543458D01*
X54614228Y-51658182D01*
X54614221Y-51658195D01*
X54561421Y-51785667D01*
X54561418Y-51785677D01*
X54534500Y-51921004D01*
X54534500Y-51921007D01*
X54534500Y-52058993D01*
X54534500Y-52058995D01*
X54534499Y-52058995D01*
X52810500Y-52058995D01*
X52810500Y-52058993D01*
X52810500Y-51921007D01*
X52810500Y-51921004D01*
X52783581Y-51785677D01*
X52783580Y-51785676D01*
X52783580Y-51785672D01*
X52783578Y-51785667D01*
X52730778Y-51658195D01*
X52730771Y-51658182D01*
X52654114Y-51543458D01*
X52654111Y-51543454D01*
X52556545Y-51445888D01*
X52556541Y-51445885D01*
X52441817Y-51369228D01*
X52441804Y-51369221D01*
X52314332Y-51316421D01*
X52314322Y-51316418D01*
X52178995Y-51289500D01*
X52178993Y-51289500D01*
X52041007Y-51289500D01*
X52041005Y-51289500D01*
X51905677Y-51316418D01*
X51905667Y-51316421D01*
X51778195Y-51369221D01*
X51778182Y-51369228D01*
X51663458Y-51445885D01*
X51663454Y-51445888D01*
X51565888Y-51543454D01*
X51565885Y-51543458D01*
X51489228Y-51658182D01*
X51489221Y-51658195D01*
X51436421Y-51785667D01*
X51436418Y-51785677D01*
X51409500Y-51921004D01*
X51409500Y-51921007D01*
X51409500Y-52058993D01*
X51409500Y-52058995D01*
X51409499Y-52058995D01*
X49240500Y-52058995D01*
X49240500Y-49354500D01*
X49260185Y-49287461D01*
X49312989Y-49241706D01*
X49364500Y-49230500D01*
X72725500Y-49230500D01*
X72792539Y-49250185D01*
G37*
%TD.AperFunction*%
%TD*%
M02*
